<?xml version="1.0" encoding="utf-8"?>
<!-- Generator: Adobe Illustrator 22.0.1, SVG Export Plug-In . SVG Version: 6.00 Build 0)  -->
<svg version="1.1" id="Layer_1" xmlns="http://www.w3.org/2000/svg" xmlns:xlink="http://www.w3.org/1999/xlink" x="0px" y="0px"
	 viewBox="0 0 14.98685 16.48593" style="enable-background:new 0 0 14.98685 16.48593; fill: #f6901d;" xml:space="preserve">
<path d="M7.4934,16.48593c-0.5685,0-1.0336-0.4625-1.0336-1.0277V3.49402l-4.7027,4.65c-0.4134,0.411-1.0594,0.411-1.4729,0
	C0.1034,7.96422,0,7.70732,0,7.42473c0-0.2569,0.1034-0.5396,0.3101-0.7194l6.4598-6.397c0.4134-0.4111,1.0594-0.4111,1.447,0
	l6.4599,6.397c0.4134,0.411,0.4134,1.0533,0,1.4643c-0.4135,0.4112-1.0595,0.4112-1.4728,0l-4.677-4.6756v11.9642
	C8.527,16.02342,8.0619,16.48593,7.4934,16.48593z"/>
</svg>
