<svg xmlns="http://www.w3.org/2000/svg" xmlns:xlink="http://www.w3.org/1999/xlink" viewBox="0 0 105.08 69.99"><defs><style>.cls-1{fill:url(#linear-gradient);}.cls-2{fill:#ec008c;}</style><linearGradient id="linear-gradient" x1="42.56" y1="39.46" x2="62.52" y2="4.89" gradientUnits="userSpaceOnUse"><stop offset="0" stop-color="#ec008c"/><stop offset="1" stop-color="#fbb040"/></linearGradient></defs><title>Asset 1</title><g id="Layer_2" data-name="Layer 2"><g id="Layer_1-2" data-name="Layer 1"><path class="cls-1" d="M69.86,9.13,55.17.65a5.64,5.64,0,0,0-5.27,0L35.22,9.13a5.67,5.67,0,0,0-2.63,4.57v17a5.66,5.66,0,0,0,2.63,4.56L49.9,43.7a5.66,5.66,0,0,0,5.27,0l14.69-8.48a5.65,5.65,0,0,0,2.63-4.56v-17A5.65,5.65,0,0,0,69.86,9.13ZM61.11,27.19a5.91,5.91,0,0,1-5,5.81H56a.87.87,0,0,1-.13-1.72A4.15,4.15,0,0,0,55.24,23H53.41v9.1a.87.87,0,1,1-1.73,0V23H50L45.62,32.5a.86.86,0,0,1-.79.51.89.89,0,0,1-.36-.08A.87.87,0,0,1,44,31.78l4.12-9a5.88,5.88,0,0,1,.66-11.42l.12,0a.87.87,0,0,1,.27,1.71h-.09a4.14,4.14,0,0,0,.72,8.23h5.4a4.15,4.15,0,0,0,0-8.29H53.41v5.69a.87.87,0,1,1-1.73,0V12.16a.87.87,0,0,1,.86-.87h2.7a5.87,5.87,0,0,1,3.05,10.89A5.87,5.87,0,0,1,61.11,27.19Z"/><path class="cls-2" d="M0,52.94H2.18a2.83,2.83,0,0,1,.92.13,1.68,1.68,0,0,1,.61.33,1.25,1.25,0,0,1,.34.49,1.6,1.6,0,0,1,.1.57,1.12,1.12,0,0,1-.1.49,1.67,1.67,0,0,1-.23.37,1.13,1.13,0,0,1-.29.24,1.2,1.2,0,0,1-.26.12,1.92,1.92,0,0,1,.36.13,1.39,1.39,0,0,1,.39.26,1.3,1.3,0,0,1,.31.43,1.32,1.32,0,0,1,.13.61,1.7,1.7,0,0,1-.16.77,1.41,1.41,0,0,1-.46.52,2,2,0,0,1-.71.29,4.36,4.36,0,0,1-.95.09H0Zm2.06,2.33a1.18,1.18,0,0,0,.29,0,.82.82,0,0,0,.25-.11.57.57,0,0,0,.18-.2.63.63,0,0,0,.07-.31.64.64,0,0,0-.07-.32.58.58,0,0,0-.18-.2.75.75,0,0,0-.26-.1,1.34,1.34,0,0,0-.28,0H1.28v1.31Zm.08,2.48.32,0a.9.9,0,0,0,.32-.1A.67.67,0,0,0,3,57.4a.72.72,0,0,0,.1-.41.67.67,0,0,0-.1-.38.69.69,0,0,0-.24-.23,1.07,1.07,0,0,0-.32-.11l-.32,0H1.28v1.52Z"/><path class="cls-2" d="M7.11,52.94H8.43v5.83H7.11Z"/><path class="cls-2" d="M14.32,55.56h2.25v2.52a3.24,3.24,0,0,1-1.06.61,4.11,4.11,0,0,1-1.38.21,3.43,3.43,0,0,1-1.28-.22,2.72,2.72,0,0,1-1-.62,2.63,2.63,0,0,1-.6-1,3.54,3.54,0,0,1-.21-1.23,3.3,3.3,0,0,1,.22-1.21A2.86,2.86,0,0,1,12.88,53a3.36,3.36,0,0,1,2.61.06,2.71,2.71,0,0,1,1,.81l-.89.85a2.56,2.56,0,0,0-.62-.54,1.53,1.53,0,0,0-.83-.21,1.66,1.66,0,0,0-.72.15,1.58,1.58,0,0,0-.53.4,1.84,1.84,0,0,0-.33.6,2.29,2.29,0,0,0-.11.73,2.14,2.14,0,0,0,.13.76,1.79,1.79,0,0,0,.37.58,1.59,1.59,0,0,0,.56.37,1.75,1.75,0,0,0,.69.13,2.27,2.27,0,0,0,.64-.08,1.43,1.43,0,0,0,.51-.27v-.73h-1Z"/><path class="cls-2" d="M22.7,52.94h2.17a2.5,2.5,0,0,1,.89.15,1.78,1.78,0,0,1,.64.39,1.56,1.56,0,0,1,.38.58,2,2,0,0,1,.13.71,1.92,1.92,0,0,1-.25,1,1.85,1.85,0,0,1-.71.68l1.29,2.33H25.8l-1.08-2.14H24v2.14H22.7Zm2.1,2.63a.73.73,0,0,0,.79-.77.78.78,0,0,0-.21-.57A.79.79,0,0,0,24.8,54H24v1.55Z"/><path class="cls-2" d="M32.47,58.91a3,3,0,0,1-1.2-.24,3,3,0,0,1-1-.64,2.87,2.87,0,0,1-.64-1,3.26,3.26,0,0,1,0-2.42,2.86,2.86,0,0,1,.64-1,3,3,0,0,1,1-.64,3.16,3.16,0,0,1,2.4,0,2.94,2.94,0,0,1,1.6,1.61,3.28,3.28,0,0,1,0,2.42,3,3,0,0,1-.64,1,3,3,0,0,1-1,.64A3,3,0,0,1,32.47,58.91Zm0-1.24a1.59,1.59,0,0,0,.69-.15,1.57,1.57,0,0,0,.52-.4,1.78,1.78,0,0,0,.33-.59,2.24,2.24,0,0,0,0-1.41,1.78,1.78,0,0,0-.33-.58A1.56,1.56,0,0,0,32.47,54a1.59,1.59,0,0,0-1.22.54,1.82,1.82,0,0,0-.33.58,2.25,2.25,0,0,0,0,1.41,1.82,1.82,0,0,0,.33.59,1.58,1.58,0,0,0,.53.4A1.6,1.6,0,0,0,32.47,57.67Z"/><path class="cls-2" d="M41,58.91a3,3,0,0,1-1.2-.24,2.93,2.93,0,0,1-1-.64,3,3,0,0,1-.64-1,3.3,3.3,0,0,1,0-2.42A2.95,2.95,0,0,1,39.76,53a3.16,3.16,0,0,1,2.4,0,3,3,0,0,1,1,.64,3,3,0,0,1,.64,1,3.28,3.28,0,0,1,0,2.42,3,3,0,0,1-.64,1,3,3,0,0,1-2.16.88Zm0-1.24a1.58,1.58,0,0,0,.69-.15,1.54,1.54,0,0,0,.52-.4,1.76,1.76,0,0,0,.33-.59,2.27,2.27,0,0,0,0-1.41,1.76,1.76,0,0,0-.33-.58,1.55,1.55,0,0,0-.52-.39A1.57,1.57,0,0,0,41,54a1.62,1.62,0,0,0-.7.15,1.55,1.55,0,0,0-.52.39,1.74,1.74,0,0,0-.33.58,2.24,2.24,0,0,0,0,1.41,1.74,1.74,0,0,0,.33.59,1.54,1.54,0,0,0,.52.4A1.62,1.62,0,0,0,41,57.67Z"/><path class="cls-2" d="M46.82,52.94h1.25l1.52,2.74,1.48-2.74h1.26l.27,5.83H51.29L51.12,55l-1.21,2.27h-.68L48,55l-.15,3.78H46.55Z"/><path class="cls-2" d="M59.16,57a2.36,2.36,0,0,0,.26.25,2.57,2.57,0,0,0,.34.23,2.32,2.32,0,0,0,.41.17,1.64,1.64,0,0,0,.48.07,1.08,1.08,0,0,0,.3,0,1,1,0,0,0,.27-.13.68.68,0,0,0,.2-.2.48.48,0,0,0,.07-.27.56.56,0,0,0-.31-.5,4.48,4.48,0,0,0-1-.35,2.75,2.75,0,0,1-.62-.23,1.8,1.8,0,0,1-.48-.36,1.58,1.58,0,0,1-.32-.48,1.52,1.52,0,0,1-.11-.6,1.82,1.82,0,0,1,.13-.69,1.61,1.61,0,0,1,.4-.57,1.92,1.92,0,0,1,.66-.39,2.82,2.82,0,0,1,.94-.14,3,3,0,0,1,.79.09,2.65,2.65,0,0,1,.58.22,2,2,0,0,1,.39.26l.23.22-.76.84-.22-.17-.28-.17a2,2,0,0,0-.35-.13,1.46,1.46,0,0,0-.4-.05,1,1,0,0,0-.27,0,1,1,0,0,0-.25.12.65.65,0,0,0-.17.18.4.4,0,0,0-.07.21.55.55,0,0,0,.32.48,3,3,0,0,0,.86.31,4.35,4.35,0,0,1,.63.21,2,2,0,0,1,.55.36,1.63,1.63,0,0,1,.4.53,1.84,1.84,0,0,1,.15.77,1.54,1.54,0,0,1-.18.73,1.84,1.84,0,0,1-.47.58,2.29,2.29,0,0,1-.71.38,2.78,2.78,0,0,1-.88.14,3.57,3.57,0,0,1-.79-.08,3.35,3.35,0,0,1-.65-.22,2.87,2.87,0,0,1-.52-.31,3,3,0,0,1-.4-.36Z"/><path class="cls-2" d="M66.88,54.1H65V52.94h5.09V54.1H68.2v4.66H66.88Z"/><path class="cls-2" d="M72.54,52.94h1.33v3.45a2.22,2.22,0,0,0,.05.52,1,1,0,0,0,.19.4.84.84,0,0,0,.35.26,1.53,1.53,0,0,0,1,0,.82.82,0,0,0,.34-.26,1,1,0,0,0,.19-.4,2.11,2.11,0,0,0,.06-.52V52.94h1.34v3.62a2.63,2.63,0,0,1-.17,1,2.11,2.11,0,0,1-.49.75,2.32,2.32,0,0,1-.77.48,2.78,2.78,0,0,1-1,.17,2.81,2.81,0,0,1-1-.17,2.14,2.14,0,0,1-.77-.48,2.18,2.18,0,0,1-.49-.75,2.63,2.63,0,0,1-.17-1Z"/><path class="cls-2" d="M80.27,52.94h2.2a4.28,4.28,0,0,1,1.25.18,2.77,2.77,0,0,1,1,.53,2.43,2.43,0,0,1,.65.92,3.45,3.45,0,0,1,.23,1.32,3.14,3.14,0,0,1-.23,1.26,2.48,2.48,0,0,1-.65.9,2.66,2.66,0,0,1-1,.54,4.16,4.16,0,0,1-1.24.18H80.27Zm2.12,4.66a1.87,1.87,0,0,0,1.35-.46,1.7,1.7,0,0,0,.47-1.26,2.43,2.43,0,0,0-.11-.73,1.49,1.49,0,0,0-.33-.56,1.47,1.47,0,0,0-.57-.36,2.32,2.32,0,0,0-.81-.13h-.8v3.49Z"/><path class="cls-2" d="M88.27,52.94H89.6v5.83H88.27Z"/><path class="cls-2" d="M95.28,58.91a3,3,0,0,1-1.2-.24,2.93,2.93,0,0,1-1.6-1.62,3.28,3.28,0,0,1,0-2.42A2.94,2.94,0,0,1,94.08,53a3.16,3.16,0,0,1,2.4,0,2.93,2.93,0,0,1,1.6,1.61,3.32,3.32,0,0,1,0,2.42,3,3,0,0,1-2.8,1.86Zm0-1.24a1.58,1.58,0,0,0,.69-.15,1.57,1.57,0,0,0,.52-.4,1.8,1.8,0,0,0,.33-.59,2.25,2.25,0,0,0,0-1.41,1.8,1.8,0,0,0-.33-.58A1.55,1.55,0,0,0,95.28,54a1.61,1.61,0,0,0-.7.15,1.51,1.51,0,0,0-.52.39,1.77,1.77,0,0,0-.33.58,2.3,2.3,0,0,0,0,1.41,1.77,1.77,0,0,0,.33.59,1.5,1.5,0,0,0,.52.4A1.62,1.62,0,0,0,95.28,57.67Z"/><path class="cls-2" d="M101.33,57a2.31,2.31,0,0,0,.27.25,2.25,2.25,0,0,0,.34.23,2.28,2.28,0,0,0,.41.17,1.64,1.64,0,0,0,.48.07,1.12,1.12,0,0,0,.3,0,1,1,0,0,0,.27-.13.71.71,0,0,0,.2-.2.49.49,0,0,0,.07-.27.56.56,0,0,0-.31-.5,4.48,4.48,0,0,0-1-.35,2.57,2.57,0,0,1-.62-.23,1.8,1.8,0,0,1-.49-.36,1.46,1.46,0,0,1-.43-1.08,1.82,1.82,0,0,1,.13-.69,1.61,1.61,0,0,1,.4-.57,1.94,1.94,0,0,1,.67-.39,2.78,2.78,0,0,1,.94-.14,3,3,0,0,1,.79.09,2.69,2.69,0,0,1,.58.22,1.92,1.92,0,0,1,.39.26l.23.22-.76.84-.22-.17a2.36,2.36,0,0,0-.28-.17,2.08,2.08,0,0,0-.34-.13,1.45,1.45,0,0,0-.4-.05,1,1,0,0,0-.28,0,1,1,0,0,0-.24.12.63.63,0,0,0-.18.18.41.41,0,0,0-.06.21.53.53,0,0,0,.31.48,3,3,0,0,0,.86.31,4.18,4.18,0,0,1,.63.21,2,2,0,0,1,.56.36,1.6,1.6,0,0,1,.39.53,1.81,1.81,0,0,1,.15.77,1.54,1.54,0,0,1-.18.73,1.83,1.83,0,0,1-.48.58,2.24,2.24,0,0,1-.71.38,2.8,2.8,0,0,1-.88.14,3.57,3.57,0,0,1-.79-.08,3.45,3.45,0,0,1-.65-.22,2.82,2.82,0,0,1-.92-.67Z"/><path class="cls-2" d="M6.44,69.14a1.36,1.36,0,0,1-.22.26,2,2,0,0,1-.36.28,2.23,2.23,0,0,1-.49.22,1.94,1.94,0,0,1-.6.09,2.19,2.19,0,0,1-.85-.16,1.91,1.91,0,0,1-.67-.46,2,2,0,0,1-.44-.7,2.51,2.51,0,0,1,0-1.75,2.12,2.12,0,0,1,.44-.71,1.93,1.93,0,0,1,.67-.48,2.1,2.1,0,0,1,.86-.17,2,2,0,0,1,.61.08,2,2,0,0,1,.47.21,1.87,1.87,0,0,1,.57.55L6,66.75a2.74,2.74,0,0,0-.18-.22,1.16,1.16,0,0,0-.25-.21,1.41,1.41,0,0,0-.34-.16,1.34,1.34,0,0,0-.44-.06,1.44,1.44,0,0,0-.63.13,1.39,1.39,0,0,0-.47.36,1.6,1.6,0,0,0-.3.53,2.09,2.09,0,0,0-.1.65,2,2,0,0,0,.11.65,1.59,1.59,0,0,0,.29.52,1.39,1.39,0,0,0,.46.35,1.47,1.47,0,0,0,.61.12,1.55,1.55,0,0,0,.5-.07,1.54,1.54,0,0,0,.35-.17A1.22,1.22,0,0,0,5.86,69L6,68.78Z"/><path class="cls-2" d="M8.42,65.65H9.77a1.88,1.88,0,0,1,.69.11,1.35,1.35,0,0,1,.45.29,1,1,0,0,1,.25.39,1.29,1.29,0,0,1,.08.45,1.35,1.35,0,0,1-.19.72,1.13,1.13,0,0,1-.59.46l1,1.81h-.68l-.91-1.74H9v1.74H8.42Zm1.4,2a.82.82,0,0,0,.6-.2.71.71,0,0,0,.2-.53.7.7,0,0,0-.21-.55.87.87,0,0,0-.6-.19H9v1.46Z"/><path class="cls-2" d="M13.43,65.65H16.1v.54H14v1.23h1.55V68H14v1.37h2.21v.55H13.43Z"/><path class="cls-2" d="M19.53,65.65h.62l1.66,4.24h-.68l-.44-1.18H18.95l-.44,1.18h-.64Zm1,2.54-.69-1.86-.69,1.86Z"/><path class="cls-2" d="M24.09,66.18H22.57v-.53h3.64v.53H24.7v3.71h-.61Z"/><path class="cls-2" d="M28.11,65.65h.61v4.24h-.61Z"/><path class="cls-2" d="M30.54,65.65h.68l1.29,3.48,1.29-3.48h.64L32.8,69.88h-.62Z"/><path class="cls-2" d="M36.26,65.65h2.67v.54H36.87v1.23h1.55V68H36.87v1.37h2.21v.55H36.26Z"/><path class="cls-2" d="M44.9,65.53h.57L43.78,70h-.58Z"/><path class="cls-2" d="M51,66.18H49.47v-.53h3.64v.53H51.6v3.71H51Z"/><path class="cls-2" d="M55,65.65h2.67v.54H55.62v1.23h1.55V68H55.62v1.37h2.21v.55H55Z"/><path class="cls-2" d="M63.46,69.14a1.37,1.37,0,0,1-.22.26,1.86,1.86,0,0,1-.36.28,2.3,2.3,0,0,1-.48.22,2,2,0,0,1-.6.09,2.22,2.22,0,0,1-.86-.16,2,2,0,0,1-.67-.46,2.05,2.05,0,0,1-.43-.7,2.54,2.54,0,0,1,0-1.75,2.17,2.17,0,0,1,.43-.71,2,2,0,0,1,.67-.48,2.11,2.11,0,0,1,.87-.17,2,2,0,0,1,1.07.29,2,2,0,0,1,.58.55l-.43.37a2.15,2.15,0,0,0-.18-.22,1.2,1.2,0,0,0-.25-.21,1.52,1.52,0,0,0-.33-.16,1.37,1.37,0,0,0-.44-.06,1.42,1.42,0,0,0-.63.13,1.36,1.36,0,0,0-.47.36,1.54,1.54,0,0,0-.3.53,2.06,2.06,0,0,0-.1.65,2,2,0,0,0,.1.65,1.67,1.67,0,0,0,.29.52,1.38,1.38,0,0,0,.46.35,1.48,1.48,0,0,0,.61.12,1.54,1.54,0,0,0,.49-.07,1.49,1.49,0,0,0,.35-.17,1.25,1.25,0,0,0,.23-.21l.16-.18Z"/><path class="cls-2" d="M65.44,65.65H66v1.77h2.32V65.65H69v4.24h-.61V68H66v1.92h-.61Z"/><path class="cls-2" d="M71.21,65.65h.62L74.14,69V65.65h.6v4.24h-.61l-2.32-3.32v3.32h-.6Z"/><path class="cls-2" d="M79,70a2.1,2.1,0,0,1-.85-.17A2.16,2.16,0,0,1,77,68.63a2.33,2.33,0,0,1,0-1.74,2.18,2.18,0,0,1,.46-.7,2.16,2.16,0,0,1,2.39-.48A2.16,2.16,0,0,1,81,66.89a2.37,2.37,0,0,1,0,1.74,2.15,2.15,0,0,1-1.15,1.19A2.13,2.13,0,0,1,79,70Zm0-.57a1.5,1.5,0,0,0,.63-.13,1.53,1.53,0,0,0,.48-.36,1.61,1.61,0,0,0,.31-.53,1.89,1.89,0,0,0,.11-.64,1.92,1.92,0,0,0-.11-.64,1.58,1.58,0,0,0-.31-.53,1.48,1.48,0,0,0-.48-.36,1.6,1.6,0,0,0-1.27,0,1.44,1.44,0,0,0-.48.36,1.54,1.54,0,0,0-.31.53,1.92,1.92,0,0,0-.11.64,1.89,1.89,0,0,0,.11.64,1.56,1.56,0,0,0,.31.53,1.42,1.42,0,0,0,1.11.5Z"/><path class="cls-2" d="M83.19,65.65h.61v3.7H86v.54H83.19Z"/><path class="cls-2" d="M89.52,70a2.12,2.12,0,0,1-.85-.17,2.18,2.18,0,0,1-1.14-1.19,2.42,2.42,0,0,1,0-1.74,2.3,2.3,0,0,1,.45-.7,2.19,2.19,0,0,1,.69-.48,2.15,2.15,0,0,1,2.4.48,2.16,2.16,0,0,1,.45.7,2.29,2.29,0,0,1,0,1.74,2.14,2.14,0,0,1-1.14,1.19A2.13,2.13,0,0,1,89.52,70Zm0-.57a1.48,1.48,0,0,0,.63-.13,1.45,1.45,0,0,0,.48-.36,1.61,1.61,0,0,0,.31-.53,1.84,1.84,0,0,0,.11-.64,1.87,1.87,0,0,0-.11-.64,1.59,1.59,0,0,0-.31-.53,1.4,1.4,0,0,0-.48-.36,1.49,1.49,0,0,0-.63-.13,1.47,1.47,0,0,0-.63.13,1.41,1.41,0,0,0-.48.36,1.54,1.54,0,0,0-.31.53,1.92,1.92,0,0,0-.11.64,1.89,1.89,0,0,0,.11.64,1.56,1.56,0,0,0,.31.53,1.43,1.43,0,0,0,1.11.5Z"/><path class="cls-2" d="M95.91,67.73H97.4v1.69a1.9,1.9,0,0,1-.64.39,2.6,2.6,0,0,1-.46.12,3,3,0,0,1-.58,0,2.3,2.3,0,0,1-.89-.17,2.17,2.17,0,0,1-.68-.46,2,2,0,0,1-.43-.7,2.55,2.55,0,0,1-.15-.88,2.45,2.45,0,0,1,.15-.87,2.14,2.14,0,0,1,.44-.71,2,2,0,0,1,.67-.48,2.12,2.12,0,0,1,.87-.17,2.07,2.07,0,0,1,.6.08,2,2,0,0,1,.47.2,2,2,0,0,1,.34.27,2.5,2.5,0,0,1,.23.28l-.43.37-.19-.22a1.09,1.09,0,0,0-.25-.21,1.51,1.51,0,0,0-.33-.16,1.38,1.38,0,0,0-.43-.06,1.41,1.41,0,0,0-1.11.5,1.73,1.73,0,0,0-.3.54,2,2,0,0,0-.1.65,1.89,1.89,0,0,0,.11.68,1.57,1.57,0,0,0,.32.52,1.46,1.46,0,0,0,1.1.47,2.14,2.14,0,0,0,.63-.08,1.38,1.38,0,0,0,.44-.23v-.86h-.9Z"/><path class="cls-2" d="M100.42,68,99,65.65h.68l1.1,1.81,1.1-1.81h.65L101,68v1.89h-.61Z"/><path class="cls-2" d="M6.44,69.13a1.33,1.33,0,0,1-.21.26,1.83,1.83,0,0,1-.36.28,2.1,2.1,0,0,1-.49.22,2,2,0,0,1-.6.09,2.15,2.15,0,0,1-.86-.16,2,2,0,0,1-.67-.46,2.12,2.12,0,0,1-.44-.7,2.54,2.54,0,0,1,0-1.75,2.22,2.22,0,0,1,.44-.71,2,2,0,0,1,.67-.48,2.09,2.09,0,0,1,.87-.18,2,2,0,0,1,1.07.29,1.8,1.8,0,0,1,.34.27,2.15,2.15,0,0,1,.23.28L6,66.74l-.18-.22a1.15,1.15,0,0,0-.25-.21,1.48,1.48,0,0,0-.33-.16,1.43,1.43,0,0,0-.44-.06,1.39,1.39,0,0,0-1.1.5,1.62,1.62,0,0,0-.29.53,2,2,0,0,0-.1.65,2,2,0,0,0,.1.65,1.71,1.71,0,0,0,.29.52,1.37,1.37,0,0,0,.46.35,1.43,1.43,0,0,0,.61.13,1.49,1.49,0,0,0,.49-.07,1.65,1.65,0,0,0,.35-.17A1.3,1.3,0,0,0,5.86,69L6,68.78Z"/><path class="cls-2" d="M8.42,65.64H9.77a1.92,1.92,0,0,1,.69.11,1.37,1.37,0,0,1,.45.29,1,1,0,0,1,.25.4,1.33,1.33,0,0,1,.08.45,1.37,1.37,0,0,1-.19.72,1.14,1.14,0,0,1-.59.46l1,1.81h-.68l-.91-1.74H9v1.74H8.42Zm1.4,2a.83.83,0,0,0,.6-.19.72.72,0,0,0,.2-.53.7.7,0,0,0-.21-.54.86.86,0,0,0-.6-.19H9v1.46Z"/><path class="cls-2" d="M13.44,65.64H16.1v.54H14v1.23H15.6V68H14v1.37h2.21v.55H13.44Z"/><path class="cls-2" d="M19.53,65.64h.62l1.66,4.24h-.68l-.44-1.18H19l-.44,1.18h-.64Zm1,2.54-.69-1.86-.69,1.86Z"/><path class="cls-2" d="M24.09,66.17H22.57v-.53h3.64v.53H24.7v3.71h-.61Z"/><path class="cls-2" d="M28.12,65.64h.61v4.24h-.61Z"/><path class="cls-2" d="M30.55,65.64h.68l1.29,3.48,1.29-3.48h.64l-1.64,4.24h-.62Z"/><path class="cls-2" d="M36.26,65.64h2.67v.54H36.87v1.23h1.55V68H36.87v1.37h2.21v.55H36.26Z"/><path class="cls-2" d="M44.9,65.53h.56L43.79,70h-.58Z"/><path class="cls-2" d="M51,66.17H49.47v-.53h3.64v.53H51.6v3.71H51Z"/><path class="cls-2" d="M55,65.64h2.67v.54H55.63v1.23h1.55V68H55.63v1.37h2.21v.55H55Z"/><path class="cls-2" d="M63.47,69.13a1.3,1.3,0,0,1-.21.26,1.77,1.77,0,0,1-.36.28,2.18,2.18,0,0,1-.48.22,2,2,0,0,1-.61.09,2.16,2.16,0,0,1-.86-.16,2,2,0,0,1-.66-.46,2.09,2.09,0,0,1-.44-.7,2.59,2.59,0,0,1,0-1.75,2.19,2.19,0,0,1,.44-.71,2,2,0,0,1,.67-.48,2.1,2.1,0,0,1,.87-.18,2,2,0,0,1,.6.08,2,2,0,0,1,.46.21,1.75,1.75,0,0,1,.34.27,2.11,2.11,0,0,1,.23.28l-.43.37-.18-.22a1.23,1.23,0,0,0-.25-.21,1.47,1.47,0,0,0-.33-.16,1.48,1.48,0,0,0-.44-.06,1.38,1.38,0,0,0-.62.13,1.42,1.42,0,0,0-.47.36,1.61,1.61,0,0,0-.29.53,2,2,0,0,0-.1.65,1.9,1.9,0,0,0,.1.65,1.67,1.67,0,0,0,.29.52,1.39,1.39,0,0,0,.46.35,1.43,1.43,0,0,0,.61.13,1.47,1.47,0,0,0,.49-.07,1.41,1.41,0,0,0,.35-.17,1.3,1.3,0,0,0,.24-.21l.16-.17Z"/><path class="cls-2" d="M65.44,65.64h.61v1.77h2.32V65.64H69v4.24h-.61V68H66.05v1.92h-.61Z"/><path class="cls-2" d="M71.22,65.64h.62l2.31,3.31V65.64h.6v4.24h-.61l-2.32-3.32v3.32h-.6Z"/><path class="cls-2" d="M79,70a2.1,2.1,0,0,1-.85-.17A2.16,2.16,0,0,1,77,68.63a2.3,2.3,0,0,1,.45-2.44,2.14,2.14,0,0,1,.69-.47,2.17,2.17,0,0,1,1.71,0,2.23,2.23,0,0,1,.69.47,2.28,2.28,0,0,1,.62,1.58,2.18,2.18,0,0,1-1.31,2.05A2.11,2.11,0,0,1,79,70Zm0-.57a1.5,1.5,0,0,0,.63-.13,1.41,1.41,0,0,0,.48-.36,1.57,1.57,0,0,0,.31-.53,1.8,1.8,0,0,0,.11-.64,1.84,1.84,0,0,0-.11-.64,1.59,1.59,0,0,0-.31-.53,1.34,1.34,0,0,0-.48-.36,1.58,1.58,0,0,0-1.26,0,1.41,1.41,0,0,0-.48.36,1.63,1.63,0,0,0-.31.53,1.89,1.89,0,0,0-.11.64,1.85,1.85,0,0,0,.11.64,1.61,1.61,0,0,0,.31.53,1.41,1.41,0,0,0,1.11.5Z"/><path class="cls-2" d="M83.2,65.64h.61v3.7H86v.54H83.2Z"/><path class="cls-2" d="M89.52,70a2.1,2.1,0,0,1-.85-.17,2.23,2.23,0,0,1-.69-.48,2.28,2.28,0,0,1-.46-.71A2.3,2.3,0,0,1,88,66.18a2.18,2.18,0,0,1,.69-.47,2.11,2.11,0,0,1,.86-.18,2.09,2.09,0,0,1,.85.18,2.16,2.16,0,0,1,.69.47,2.2,2.2,0,0,1,.45.71,2.33,2.33,0,0,1,0,1.74,2.21,2.21,0,0,1-.45.71,2.16,2.16,0,0,1-.69.48A2.12,2.12,0,0,1,89.52,70Zm0-.57a1.44,1.44,0,0,0,1.12-.5,1.68,1.68,0,0,0,.31-.53,1.92,1.92,0,0,0,.1-.64,2,2,0,0,0-.1-.64,1.7,1.7,0,0,0-.31-.53,1.4,1.4,0,0,0-.48-.36,1.46,1.46,0,0,0-.63-.13,1.43,1.43,0,0,0-.63.13,1.35,1.35,0,0,0-.48.36,1.6,1.6,0,0,0-.31.53,1.89,1.89,0,0,0-.11.64,1.85,1.85,0,0,0,.11.64,1.58,1.58,0,0,0,.31.53,1.43,1.43,0,0,0,.48.36A1.46,1.46,0,0,0,89.52,69.41Z"/><path class="cls-2" d="M95.92,67.72h1.49v1.69a2,2,0,0,1-.28.21,2,2,0,0,1-.36.18,2.43,2.43,0,0,1-.46.12,3,3,0,0,1-.57,0,2.3,2.3,0,0,1-.89-.17,2.07,2.07,0,0,1-.68-.46,2.1,2.1,0,0,1-.43-.7,2.62,2.62,0,0,1-.15-.88,2.36,2.36,0,0,1,.16-.87,2.1,2.1,0,0,1,.43-.71,2,2,0,0,1,.67-.48,2.12,2.12,0,0,1,1.94.11,1.84,1.84,0,0,1,.34.27,2.48,2.48,0,0,1,.23.28l-.43.37a1.51,1.51,0,0,0-.19-.22,1.17,1.17,0,0,0-.25-.21,1.43,1.43,0,0,0-.33-.16,1.36,1.36,0,0,0-.43-.07,1.44,1.44,0,0,0-.63.13,1.43,1.43,0,0,0-.47.36,1.64,1.64,0,0,0-.3.54,1.93,1.93,0,0,0-.1.65,1.9,1.9,0,0,0,.11.67,1.59,1.59,0,0,0,.32.52,1.46,1.46,0,0,0,1.1.47,2.13,2.13,0,0,0,.63-.08,1.43,1.43,0,0,0,.44-.23v-.86h-.9Z"/><path class="cls-2" d="M100.42,68,99,65.64h.68l1.1,1.81,1.11-1.81h.65L101,68v1.9h-.62Z"/></g></g></svg>