<?xml version="1.0" encoding="utf-8"?>
<!-- Generator: Adobe Illustrator 22.0.1, SVG Export Plug-In . SVG Version: 6.00 Build 0)  -->
<svg version="1.1" id="Layer_1" xmlns="http://www.w3.org/2000/svg" xmlns:xlink="http://www.w3.org/1999/xlink" x="0px" y="0px"
	 viewBox="0 0 76.7 90.3" style="enable-background:new 0 0 76.7 90.3;" xml:space="preserve">
<style type="text/css">
	.st0{opacity:0.5;fill:#FFFFFF;}
	.st1{fill:#FFFFFF;}
	.st2{opacity:0.6;fill:#F87F1E;}
	.st3{fill:#F87F1E;}
</style>
<g>
	<path class="st0" d="M46,6v56.3H6V6H46 M47.3,0H4.7C2.1,0,0,2.1,0,4.7v58.8c0,2.6,2.1,4.7,4.7,4.7h42.5c2.6,0,4.7-2.1,4.7-4.7V4.7
		C52,2.1,49.9,0,47.3,0L47.3,0z"/>
	<path class="st1" d="M70.7,28v56.3h-40V28H70.7 M71.9,22H29.4c-2.6,0-4.7,2.1-4.7,4.7v58.8c0,2.6,2.1,4.7,4.7,4.7h42.5
		c2.6,0,4.7-2.1,4.7-4.7V26.7C76.7,24.1,74.5,22,71.9,22L71.9,22z"/>
</g>
</svg>
