<svg xmlns="http://www.w3.org/2000/svg" viewBox="0 0 25 24"><defs><style>.cls-1{fill:#fff;}</style></defs><title>Asset 2</title><g id="Layer_2" data-name="Layer 2"><g id="Layer_1-2" data-name="Layer 1"><path class="cls-1" d="M12.5,0A12.4,12.4,0,0,0,0,12.3,12.33,12.33,0,0,0,8.55,24c.62.11.85-.27.85-.59s0-1.26,0-2.29c-3.48.74-4.21-1.45-4.21-1.45a3.27,3.27,0,0,0-1.39-1.8c-1.13-.76.09-.75.09-.75a2.62,2.62,0,0,1,1.92,1.27,2.69,2.69,0,0,0,3.64,1,2.6,2.6,0,0,1,.79-1.65c-2.78-.31-5.7-1.37-5.7-6.08a4.72,4.72,0,0,1,1.29-3.3A4.36,4.36,0,0,1,5.93,5.1s1-.33,3.44,1.26a12,12,0,0,1,6.26,0C18,4.77,19.07,5.1,19.07,5.1a4.35,4.35,0,0,1,.12,3.26,4.71,4.71,0,0,1,1.29,3.3c0,4.73-2.92,5.77-5.71,6.07A2.92,2.92,0,0,1,15.61,20c0,1.65,0,3,0,3.38s.23.71.86.59A12.32,12.32,0,0,0,25,12.3,12.4,12.4,0,0,0,12.5,0ZM4.41,17.52c0,.06,0,.14.11.18s.19,0,.21,0,0-.15-.11-.19S4.43,17.46,4.41,17.52Zm.54.39c-.06.06,0,.17,0,.26s.2.11.26.06,0-.17,0-.26S5,17.85,4.95,17.91Zm.51.62c-.08.05-.08.18,0,.29s.2.16.28.11.08-.18,0-.3S5.53,18.48,5.46,18.53Zm.56.72c-.07.07,0,.22.07.31s.25.12.32,0,0-.22-.07-.31S6.09,19.18,6,19.25Zm.81.61c0,.1.06.21.21.25s.28,0,.31-.1-.06-.21-.2-.25S6.85,19.76,6.82,19.86Zm1,.24c0,.1.12.18.27.18s.27-.09.27-.19-.12-.18-.27-.18S7.83,20,7.83,20.09Zm1-.07c0,.1.15.16.3.13s.25-.13.23-.23-.15-.16-.3-.14S8.77,19.92,8.78,20Z"/></g></g></svg>