<?xml version="1.0" encoding="utf-8"?>
<!-- Generator: Adobe Illustrator 22.0.1, SVG Export Plug-In . SVG Version: 6.00 Build 0)  -->
<svg version="1.1" id="Layer_1" xmlns="http://www.w3.org/2000/svg" xmlns:xlink="http://www.w3.org/1999/xlink" x="0px" y="0px"
	 viewBox="0 0 600 471.94278" style="enable-background:new 0 0 600 471.94278;" xml:space="preserve">
<style type="text/css">
	.st0{fill:#2F2F32;}
</style>
<g>
	<path class="st0" d="M150.46167,449.25543c0.87949,7.85538,2.11035,15.41806,3.81067,22.68735h271.36929
		c3.69263-13.42468,5.62766-27.90494,6.44775-43.20563c-11.43134,9.84872-23.33212,15.5354-33.53256,15.5354
		c-10.20047,0-18.11453-5.51062-21.80786-15.06631l-0.05869-0.11737l-0.05869-0.17603
		c-1.81696-5.21725-1.81696-10.90393-1.87564-15.9455c0-1.69995,0-3.2829-0.11734-4.80716
		c-0.35138-6.3898-0.82083-12.77994-1.28955-19.22839c-0.35138-4.6315-0.70346-9.26266-0.99686-13.89417
		c-1.52429-22.51129-8.91092-42.32611-21.45578-57.2164c-10.3765-12.36987-24.21231-21.10477-38.92691-24.56335
		c-4.45547-0.99686-9.55499-1.52426-15.65207-1.52426c-7.73874,0-15.71075,0.8208-23.44949,1.64127l-1.52426,0.11737
		c-33.70862,3.45895-60.9101,10.3765-83.18668,21.22174c-5.80368,2.81381-16.59097,8.0314-20.10825,15.30069
		c-8.09009,16.41492-3.92804,54.28561-1.2316,79.37671c1.87637,16.88367,2.6972,25.20813,1.52429,30.24966
		c-1.81696,7.97275-7.62067,10.84561-12.42749,10.84561C154.09631,450.48666,152.27863,449.95889,150.46167,449.25543z
		 M244.08423,352.99542c-2.34579,1.11386-4.57281-2.98987-6.62521-5.92105c-4.69019-6.62448-13.13165-9.90741-20.98703-9.20395
		c-7.79669,0.70346-14.77328,5.745-18.40793,12.89728c-0.70343,1.34824-1.34821,3.51727-2.93118,3.98636
		c-0.58609,0.23438-1.40689,0-1.64163-0.35172c-0.58609-0.64478-0.5274-2.05203-0.35135-2.81418
		c2.69644-10.72787,6.2724-17.7041,12.78027-21.22174c6.79984-3.69333,13.65836-4.98288,20.75229-1.99301
		c7.62067,3.10687,14.01117,11.54871,17.11838,18.58362C244.37692,348.30524,245.95917,352.05725,244.08423,352.99542z
		 M325.74664,350.06424c0,0.64478-0.35208,1.28955-0.87949,1.69998c-0.35138,0.23434-0.82083,0.4104-1.28955,0.29303
		c-0.46875-0.117-0.82083-0.4104-1.17291-0.76215c-0.93747-0.99649-1.52426-2.28604-2.28571-3.3999
		c-4.98358-7.56268-11.13934-11.4317-18.70132-12.07648c-5.92105-0.46909-11.54868,1.6413-16.18018,5.21725
		c-2.34509,1.75864-4.39679,3.86935-6.27243,6.09708c-0.93817,1.11386-3.51801,4.63116-3.86935,5.15894
		c-0.46875,0.64474-1.81699,1.87564-2.93118,0.93781c-1.29028-1.05518,0.29266-3.69333,0.93817-5.15891
		c6.09708-13.13165,12.36951-23.27344,25.85254-23.27344c11.78342,0,19.93219,9.43832,26.02927,22.74603
		C325.33588,348.30524,325.80533,349.12607,325.74664,350.06424z M173.03165,373.57205
		c6.85922-9.84875,27.31885-6.21411,37.57797-5.39328c45.78473,3.57596,87.11475,0.23471,132.07864-8.91055
		c18.05655-4.45547,24.68106,8.91055,13.77713,22.51129c-13.01428,16.29755-36.17035,23.44946-55.6925,27.02542
		c-30.77744,5.68671-65.65823,6.39017-96.14301-0.99649C192.61246,404.87726,161.24823,390.51437,173.03165,373.57205z"/>
	<path class="st0" d="M339.81848,380.35153c0.57089-0.96619,0.70682-2.00571,0.39346-3.00729
		c-0.54944-1.75601-2.22354-2.64636-4.97507-2.64636c-3.487,0-8.50357,1.41403-12.5343,2.55051
		c-1.27631,0.3595-2.45819,0.69324-3.46408,0.9458c-19.9032,4.99475-41.51196,7.10312-53.12192,8.23563
		c-4.83344,0.47183-10.13474,0.71112-15.75656,0.71112c-22.23547,0-45.5155-3.629-61.12753-6.67313
		c-0.42068-0.08191-0.80988-0.11841-1.16617-0.11841c-1.6741,0-2.95615,0.82452-3.34103,2.15128
		c-0.41208,1.41833,0.35342,2.99158,1.95312,4.00854c6.87238,4.36768,18.56677,6.48465,26.30481,7.88544l0.62674,0.1134
		c10.45667,1.89624,21.11798,2.81805,32.59341,2.81805c11.05621,0,22.71338-0.82666,37.79889-2.67996
		c10.89166-1.33859,22.13531-3.17688,33.41617-5.46481C330.37198,386.55429,337.90826,383.58383,339.81848,380.35153z"/>
	<path class="st0" d="M298.69571,12.13721c-5.76062-10.34114-21.5415-14.97103-35.24625-10.34114
		c-13.70471,4.62989-20.14642,16.76639-14.3858,27.10718c4.37268,7.84681,14.51459,12.37904,25.14011,12.09895l5.37286,23.66848
		l-23.23279-1.63725l16.5607,33.05274l-22.74628-2.17669l16.98282,46.36434c4.47141-0.50188,9.02582-0.85887,13.63031-1.08638
		l-13.38992-34.17525l25.45633,3.28667l-19.59698-35.26878l19.57837,2.17132l-14.28421-34.59627
		c1.94452-0.29547,3.88046-0.72007,5.77637-1.36074C298.01605,34.61451,304.45776,22.47836,298.69571,12.13721z"/>
	<path class="st0" d="M2.45239,376.15045c2.20819,2.72293,5.37219,4.12125,8.60992,4.12125
		c2.42914,0,4.85834-0.80945,6.91827-2.42828c2.57556-2.13452,3.9007-5.07797,4.04797-8.16925l42.83117-0.88309l15.30811-0.36789
		c0,0,4.91052,11.31665,5.61261,12.69659c2.66418,5.23645,6.15344,10.05371,10.15903,14.34344
		c8.03281,8.60257,18.31274,15.27982,29.56116,18.80862c4.56397,2.13461,8.61109,5.51965,11.84968,9.78821
		c6.10797,8.02191,14.4241,16.1907,18.54578,16.1907c0.51385,0,1.76617,0,2.42737-2.87027
		c0.81033-3.60602-0.29376-14.42407-1.6925-26.86145c-3.01669-27.81863-7.21204-65.94016,2.20816-85.00113
		c4.63644-9.64075,15.23441-15.38083,24.80106-20.01727c9.80014-4.7496,20.00583-8.59418,30.44653-11.68091
		c15.75421-4.65762,31.96994-7.64917,48.26263-9.65103c17.06186-2.09637,34.9267-4.88361,51.91977-0.89352
		c16.92606,3.9744,32.67609,13.90936,44.52365,27.96555c3.81778,5.72665,8.11758,10.82565,11.3454,16.98892
		c3.35068,6.39783,5.99994,13.15445,7.98709,20.09552c4.41321,15.41522,5.05963,31.75775,6.03397,47.68146
		c0.33459,5.46841,0.59531,25.4277,2.15845,29.52542c2.13361,5.59317,6.25528,8.46344,12.2168,8.46344
		c12.43692,0,30.09958-12.73203,43.93524-31.7189c1.83984-2.42871,3.45871-5.07797,5.00388-7.80136
		c2.94394-5.37219,7.06473-9.78763,11.92307-12.80524c5.22485-3.23813,10.22873-6.84418,14.86517-10.74438
		c-18.32477-11.70163-31.35013-28.70175-36.72321-48.20428c-7.1384-26.41989,0.36743-54.38544,20.01819-75.21259
		c-4.34268-2.35506-8.24338-4.26857-12.21771-5.88741c-8.02057-3.31181-14.27676-9.27289-17.4408-16.63226
		c-5.37219-12.51103-11.62839-23.03488-18.47211-31.27734c-23.32953-27.89188-67.19202-44.59779-117.45532-44.59779
		c-15.60275,0-30.98358,1.6925-44.52457,4.85699c-51.88397,12.2168-96.2612,51.22141-113.0408,99.35155
		c-1.76617,5.00432-3.2377,10.3033-4.48822,15.74916c-1.83984,7.80093-6.77988,14.32721-13.3209,19.28156
		c-13.87527,10.51004-26.50702,20.54602-33.48541,37.09125c-3.3197,7.87094-5.22498,16.19055-5.37231,24.65399l-13.76196,3.45871
		l-42.97852,10.81851c-0.36835-0.80942-0.80945-1.61929-1.39783-2.2814c-2.13452-2.7966-5.37219-4.19489-8.53802-4.19489
		c-2.42737,0-4.93024,0.80942-6.99109,2.50238C-0.63794,364.30197-1.37464,371.36713,2.45239,376.15045z M173.48419,285.18869
		l20.45929-41.35965l13.61465,4.7101l-0.80942-25.02205l29.14285,15.38129l-5.37222-26.19936l17.29526,11.70116l9.93408-39.74036
		l26.05246,48.05649l16.48492-19.13419l7.28574,22.59332L328.03107,213.95l-0.29465,23.8443l9.34653-9.56709l30.24783,35.17758
		l-29.80582-22.44601l-19.42886,19.72308l0.36743-22.44601l-14.64508,15.60184l-7.28571-21.63658l-14.12943,17.07381
		l-21.56339-39.15193l-7.21204,29.65851l-9.49298-6.32896l5.07755,23.3291l-32.60153-17.51535l1.02951,22.59332l-19.64896-6.54994
		L173.48419,285.18869z"/>
	<path class="st0" d="M448.80136,319.58783c5.15121,18.48917,17.3851,34.52359,33.65082,44.16748
		c13.36041-13.7822,21.26511-30.11081,22.28653-46.09085l0.05032-0.8045l74.95114-19.28241l0.02966,0.07816
		c0.50311,1.3161,1.23615,2.49518,2.18304,3.50272c3.86115,4.1037,10.74347,4.27798,14.79242,0.36606
		c4.19531-4.05203,4.35522-10.80862,0.36115-15.061c-3.86298-4.10956-10.75159-4.27844-14.79242-0.36923
		c-2.00336,1.94046-3.15686,4.55875-3.24219,7.37735l-0.01709,0.5354l-76.91858,1.80347l-0.3306-0.99942
		c-5.17996-15.69348-18.05795-31.21851-35.41071-42.731C448.92352,269.3187,442.18402,295.06842,448.80136,319.58783z
		 M476.11334,342.80869c1.4751-1.87219,4.44958-1.94901,6.64157-0.17068c2.19382,1.77829,2.77505,4.73795,1.29816,6.61057
		c-1.47513,1.87219-4.4505,1.94901-6.64429,0.17072C475.21677,347.64096,474.63641,344.6813,476.11334,342.80869z
		 M468.77011,280.85498c-2.03928-1.21457-2.53876-4.18948-1.11755-6.64426c1.4212-2.45523,4.22681-3.46051,6.26517-2.24637
		c2.03751,1.2146,2.53879,4.18951,1.11667,6.64429C473.61319,281.06387,470.80942,282.06912,468.77011,280.85498z
		 M463.95312,320.08148c2.17941-0.93024,4.82959,0.4429,5.9184,3.06702c1.09061,2.62366,0.20752,5.50558-1.97012,6.43585
		c-2.17853,0.93027-4.82867-0.44244-5.91928-3.06656C460.89328,323.89368,461.77548,321.01218,463.95312,320.08148z
		 M457.75262,300.02917c0.04852-2.84735,2.00513-5.12021,4.36783-5.07709c2.3645,0.04266,4.24026,2.38513,4.19174,5.2316
		c-0.05029,2.84735-2.00693,5.12021-4.37051,5.07709C459.57809,305.21854,457.7023,302.87561,457.75262,300.02917z"/>
</g>
</svg>
