<?xml version="1.0" encoding="utf-8"?>
<!-- Generator: Adobe Illustrator 22.0.1, SVG Export Plug-In . SVG Version: 6.00 Build 0)  -->
<svg version="1.1" id="Layer_1" xmlns="http://www.w3.org/2000/svg" xmlns:xlink="http://www.w3.org/1999/xlink" x="0px" y="0px"
	 viewBox="0 0 600 471.94278" style="enable-background:new 0 0 600 471.94278;" xml:space="preserve">
<style type="text/css">
	.st0{fill:#2F2F32;}
</style>
<g>
	<path class="st0" d="M444.08603,450.48666c-4.80682,0-10.61053-2.87286-12.42749-10.84561
		c-1.17291-5.04153-0.35208-13.366,1.52429-30.24966c2.69644-25.09109,6.85849-62.96179-1.2316-79.37671
		c-3.51727-7.26929-14.30457-12.48688-20.10825-15.30069c-22.27658-10.84525-49.47806-17.76279-83.18668-21.22174l-1.52426-0.11737
		c-7.73874-0.82047-15.71075-1.64127-23.44949-1.64127c-6.09708,0-11.19659,0.5274-15.65207,1.52426
		c-14.7146,3.45859-28.55042,12.19348-38.92693,24.56335c-12.54485,14.89029-19.93149,34.70511-21.45576,57.2164
		c-0.2934,4.6315-0.64549,9.26266-0.99686,13.89417c-0.46873,6.44846-0.93817,12.83859-1.28955,19.22839
		c-0.11736,1.52426-0.11736,3.10721-0.11736,4.80716c-0.05869,5.04156-0.05869,10.72824-1.87564,15.9455l-0.05869,0.17603
		l-0.05869,0.11737c-3.69331,9.55569-11.60738,15.06631-21.80785,15.06631c-10.20045,0-22.10124-5.68668-33.53258-15.5354
		c0.8201,15.30069,2.75514,29.78094,6.44775,43.20563h271.36932c1.70032-7.26929,2.93118-14.83197,3.81067-22.68735
		C447.72137,449.95889,445.90369,450.48666,444.08603,450.48666z M356.20917,346.95703
		c3.10721-7.03491,9.49771-15.47675,17.11838-18.58362c7.09393-2.98987,13.95245-1.70032,20.75229,1.99301
		c6.50787,3.51764,10.08383,10.49387,12.78027,21.22174c0.17606,0.76215,0.23474,2.1694-0.35135,2.81418
		c-0.23474,0.35172-1.05554,0.58609-1.64163,0.35172c-1.58298-0.46909-2.22775-2.63812-2.93118-3.98636
		c-3.63464-7.15228-10.61124-12.19382-18.40793-12.89728c-7.85538-0.70346-16.29684,2.57947-20.98703,9.20395
		c-2.0524,2.93118-4.27942,7.03491-6.62521,5.92105C354.04083,352.05725,355.62308,348.30524,356.20917,346.95703z
		 M275.0155,347.54349c6.09708-13.30771,14.24585-22.74603,26.02927-22.74603c13.48303,0,19.75546,10.14178,25.85254,23.27344
		c0.64551,1.46558,2.22845,4.10373,0.93817,5.15891c-1.1142,0.93784-2.46243-0.29306-2.93118-0.93781
		c-0.35135-0.52777-2.93118-4.04507-3.86935-5.15894c-1.87564-2.22772-3.92734-4.33844-6.27243-6.09708
		c-4.6315-3.57596-10.25912-5.68634-16.18018-5.21725c-7.56198,0.64478-13.71774,4.51379-18.70132,12.07648
		c-0.76144,1.11386-1.34824,2.40341-2.28571,3.3999c-0.35208,0.35175-0.70416,0.64514-1.17291,0.76215
		c-0.46872,0.11737-0.93817-0.05869-1.28955-0.29303c-0.5274-0.41043-0.87949-1.05521-0.87949-1.69998
		C274.19467,349.12607,274.66412,348.30524,275.0155,347.54349z M395.37012,407.80844
		c-30.48477,7.38666-65.36557,6.6832-96.14301,0.99649c-19.52216-3.57596-42.67822-10.72787-55.69252-27.02542
		c-10.90392-13.60074-4.27942-26.96677,13.77715-22.51129c44.9639,9.14526,86.29391,12.48651,132.07864,8.91055
		c10.25912-0.82083,30.71875-4.45547,37.57797,5.39328C438.75177,390.51437,407.38754,404.87726,395.37012,407.80844z"/>
	<path class="st0" d="M282.58157,389.18134c11.28085,2.28793,22.52451,4.12622,33.41617,5.46481
		c15.08551,1.8533,26.74268,2.67996,37.79889,2.67996c11.47543,0,22.13675-0.92181,32.59341-2.81805l0.62674-0.1134
		c7.73804-1.40079,19.43243-3.51776,26.30481-7.88544c1.5997-1.01697,2.3652-2.59021,1.95312-4.00854
		c-0.38489-1.32675-1.66693-2.15128-3.34103-2.15128c-0.35629,0-0.74548,0.0365-1.16617,0.11841
		c-15.61203,3.04413-38.89206,6.67313-61.12753,6.67313c-5.62183,0-10.92313-0.23929-15.75656-0.71112
		c-11.60995-1.13251-33.21872-3.24088-53.12192-8.23563c-1.00589-0.25256-2.18777-0.5863-3.46408-0.9458
		c-4.03073-1.13647-9.0473-2.55051-12.5343-2.55051c-2.75153,0-4.42563,0.89035-4.97507,2.64636
		c-0.31335,1.00159-0.17743,2.04111,0.39346,3.00729C262.09174,383.58383,269.62802,386.55429,282.58157,389.18134z"/>
	<path class="st0" d="M315.68866,39.24439c1.8959,0.64067,3.83185,1.06527,5.77637,1.36074l-14.28421,34.59627l19.57837-2.17132
		l-19.59698,35.26878l25.45633-3.28667l-13.38992,34.17525c4.60449,0.22751,9.15891,0.5845,13.63031,1.08638l16.98282-46.36434
		l-22.74628,2.17669l16.5607-33.05274l-23.23279,1.63725l5.37286-23.66848c10.62552,0.28009,20.76743-4.25214,25.14011-12.09895
		c5.76062-10.34079-0.68109-22.47729-14.3858-27.10718c-13.70474-4.62989-29.48563,0-35.24625,10.34114
		C295.54224,22.47836,301.98395,34.61451,315.68866,39.24439z"/>
	<path class="st0" d="M595.92877,360.40173c-2.06085-1.69296-4.56372-2.50238-6.99109-2.50238
		c-3.16583,0-6.4035,1.39828-8.53802,4.19489c-0.58838,0.66211-1.02948,1.47198-1.39783,2.2814l-42.97852-10.81851
		l-13.76196-3.45871c-0.14734-8.46344-2.05261-16.78305-5.37231-24.65399c-6.97839-16.54523-19.61014-26.58121-33.48541-37.09125
		c-6.54102-4.95435-11.48105-11.48062-13.32089-19.28156c-1.25052-5.44586-2.72205-10.74484-4.48822-15.74916
		c-16.7796-48.13014-61.15683-87.13474-113.0408-99.35155c-13.54099-3.16449-28.92181-4.85699-44.52457-4.85699
		c-50.26331,0-94.12579,16.70592-117.45534,44.59779c-6.8437,8.24246-13.0999,18.76631-18.47209,31.27734
		c-3.16403,7.35938-9.42023,13.32045-17.4408,16.63226c-3.97435,1.61884-7.87503,3.53235-12.21771,5.88741
		c19.65076,20.82715,27.15657,48.79269,20.01819,75.21259c-5.37309,19.50253-18.39844,36.50266-36.72321,48.20428
		c4.63644,3.90021,9.6403,7.50626,14.86517,10.74438c4.85834,3.01761,8.97913,7.43304,11.92305,12.80524
		c1.54518,2.72339,3.16403,5.37265,5.00388,7.80136c13.83566,18.98688,31.49834,31.7189,43.93526,31.7189
		c5.96152,0,10.08319-2.87027,12.2168-8.46344c1.56314-4.09772,1.82385-24.05701,2.15845-29.52542
		c0.97432-15.92371,1.62076-32.26624,6.03397-47.68146c1.98715-6.94107,4.63641-13.69769,7.98709-20.09552
		c3.22781-6.16327,7.52762-11.26227,11.3454-16.98892c11.84756-14.05618,27.5976-23.99115,44.52365-27.96555
		c16.99307-3.99008,34.85791-1.20285,51.91977,0.89352c16.29269,2.00186,32.50842,4.99341,48.26263,9.65103
		c10.4407,3.08673,20.64639,6.9313,30.44653,11.68091c9.56665,4.63644,20.16461,10.37653,24.80106,20.01727
		c9.4202,19.06097,5.22485,57.1825,2.20816,85.00113c-1.39874,12.43738-2.50284,23.25543-1.6925,26.86145
		c0.66119,2.87027,1.91351,2.87027,2.42737,2.87027c4.12167,0,12.43781-8.16879,18.54578-16.1907
		c3.23859-4.26855,7.28571-7.65359,11.84967-9.78821c11.24841-3.52881,21.52835-10.20605,29.56116-18.80862
		c4.00558-4.28973,7.49484-9.10699,10.15903-14.34344c0.70209-1.37994,5.61261-12.69659,5.61261-12.69659l15.30811,0.36789
		l42.83118,0.88309c0.14728,3.09128,1.47241,6.03473,4.04797,8.16925c2.05994,1.61884,4.48914,2.42828,6.91827,2.42828
		c3.23773,0,6.40173-1.39832,8.60992-4.12125C601.37463,371.36713,600.63794,364.30197,595.92877,360.40173z M402.00851,255.30965
		l-19.64896,6.54994l1.02951-22.59332l-32.60153,17.51535l5.07755-23.3291l-9.49298,6.32896l-7.21204-29.65851l-21.56339,39.15193
		l-14.12943-17.07381l-7.28571,21.63658l-14.64508-15.60184l0.36743,22.44601l-19.42886-19.72308l-29.80582,22.44601
		l30.24783-35.17758l9.34653,9.56709l-0.29465-23.8443l20.45926,22.22545l7.28574-22.59332l16.48492,19.13419l26.05246-48.05649
		l9.93408,39.74036l17.29526-11.70116l-5.37222,26.19936l29.14285-15.38129l-0.80942,25.02205l13.61465-4.7101l20.45929,41.35965
		L402.00851,255.30965z"/>
	<path class="st0" d="M133.60513,252.08003c-17.35275,11.5125-30.23075,27.03752-35.4107,42.731l-0.3306,0.99942l-76.91859-1.80347
		l-0.01707-0.5354c-0.08534-2.8186-1.23884-5.43689-3.24219-7.37735c-4.04083-3.90921-10.92946-3.74033-14.79241,0.36923
		c-3.99411,4.25238-3.83421,11.00897,0.36114,15.061c4.04891,3.91193,10.93126,3.73764,14.79241-0.36606
		c0.94687-1.00754,1.67994-2.18661,2.18302-3.50272l0.02965-0.07816l74.95117,19.28241l0.05031,0.8045
		c1.02144,15.98004,8.92612,32.30865,22.28654,46.09085c16.26572-9.64389,28.49961-25.67831,33.65081-44.16748
		C157.81596,295.06842,151.07646,269.3187,133.60513,252.08003z M122.59122,349.41928
		c-2.19379,1.77829-5.16917,1.70148-6.64428-0.17072c-1.47691-1.87262-0.89566-4.83228,1.29813-6.61057
		c2.192-1.77832,5.16647-1.70151,6.64159,0.17068C125.36357,344.6813,124.78323,347.64096,122.59122,349.41928z M124.9656,278.60864
		c-1.42211-2.45477-0.92082-5.42969,1.11666-6.64429c2.03838-1.21414,4.84396-0.20886,6.26517,2.24637
		c1.4212,2.45477,0.92172,5.42969-1.11755,6.64426C129.19058,282.06912,126.3868,281.06387,124.9656,278.60864z
		 M138.01788,326.51779c-1.09061,2.62411-3.74077,3.99683-5.9193,3.06656c-2.17763-0.93027-3.06071-3.81219-1.97011-6.43585
		c1.08881-2.62411,3.73898-3.99725,5.9184-3.06702C138.2245,321.01218,139.1067,323.89368,138.01788,326.51779z
		 M138.05832,305.26077c-2.3636,0.04312-4.32022-2.22974-4.37053-5.07709c-0.04852-2.84647,1.82726-5.18893,4.19174-5.2316
		c2.3627-0.04312,4.31932,2.22974,4.36784,5.07709C142.29768,302.87561,140.42191,305.21854,138.05832,305.26077z"/>
</g>
</svg>
