<?xml version="1.0" encoding="utf-8"?>
<!-- Generator: Adobe Illustrator 22.0.1, SVG Export Plug-In . SVG Version: 6.00 Build 0)  -->
<svg version="1.1" id="Layer_1" xmlns="http://www.w3.org/2000/svg" xmlns:xlink="http://www.w3.org/1999/xlink" x="0px" y="0px"
	 viewBox="0 0 19 13.5" style="enable-background:new 0 0 19 13.5; fill:#f6901d;" xml:space="preserve">
<style type="text/css">
	.st0{fill-rule:evenodd;clip-rule:evenodd;}
</style>
<g>
	<g>
		<path class="st0" d="M5.78748,2.5H17.75C18.44037,2.5,19,1.94031,19,1.25C19,0.55957,18.44037,0,17.75,0H5.78748
			c-0.69037,0-1.25,0.55957-1.25,1.25C4.53748,1.94031,5.09711,2.5,5.78748,2.5z M17.75,5.49988H5.78131
			c-0.69043,0-1.25012,0.55981-1.25012,1.25c0,0.69049,0.55969,1.25018,1.25012,1.25018H17.75c0.69037,0,1.25-0.55969,1.25-1.25018
			C19,6.05969,18.44037,5.49988,17.75,5.49988z M17.75,11H5.78131c-0.69043,0-1.25012,0.55957-1.25012,1.25
			c0,0.69037,0.55969,1.25,1.25012,1.25H17.75c0.69037,0,1.25-0.55963,1.25-1.25C19,11.55957,18.44037,11,17.75,11z M1.23749,0
			C0.55402,0,0,0.55957,0,1.25C0,1.94031,0.55402,2.5,1.23749,2.5c0.68341,0,1.23749-0.55969,1.23749-1.25
			C2.47498,0.55957,1.9209,0,1.23749,0z M1.23438,5.49988C0.55267,5.49988,0,6.05969,0,6.74988
			c0,0.69049,0.55267,1.25018,1.23438,1.25018s1.23431-0.55969,1.23431-1.25018C2.46869,6.05969,1.91608,5.49988,1.23438,5.49988z
			 M1.23438,11C0.55267,11,0,11.55957,0,12.25c0,0.69037,0.55267,1.25,1.23438,1.25s1.23431-0.55963,1.23431-1.25
			C2.46869,11.55957,1.91608,11,1.23438,11z"/>
	</g>
</g>
</svg>
