<svg xmlns="http://www.w3.org/2000/svg" viewBox="0 0 288.64 143.85"><defs><style>.cls-1{fill:#fff;}</style></defs><title>Asset 5</title><g id="Layer_2" data-name="Layer 2"><g id="Layer_1-2" data-name="Layer 1"><polygon class="cls-1" points="56.58 79.64 73.48 58.59 88.51 67.88 82.12 43.3 107.5 60.07 109.2 34.7 130.76 49.98 143.59 0 163.03 36.56 176.41 21.64 178.3 57.94 205.41 33.64 210.89 59.35 225.05 50.14 247.97 74.79 224.35 57.23 207.1 68.19 202.15 43.67 173.39 69.77 171.86 35.09 161.95 45.96 145.48 14.49 133.72 58.99 113.86 44.38 111.9 69.15 90.71 55.48 96.99 79.05 74.8 65.48 56.58 79.64"/><path class="cls-1" d="M155.58,96.23a1.1,1.1,0,0,0-1.11-1.05l-12.34-.25a.8.8,0,0,0-.75.76l-3.32,29.16a.8.8,0,0,0,.61.92L155.18,128a.81.81,0,0,0,.83-.89Z"/><path class="cls-1" d="M155.87,83.37c4.05-1.78,5.9-6.51,2.39-9.74s-9.47-4.05-14.08-2.5-7.62,5.39-4,9.52S151,85.46,155.87,83.37Z"/><path class="cls-1" d="M81.31,96.29c-4.62-3.6-12.65-6.53-20.7-8.48q-1.31-.31-2.21-.48A1.19,1.19,0,0,0,57,88.71l.9,4.53a3.12,3.12,0,0,0,2.52,2.28c2,.35,3.54.63,4.8.91a39.51,39.51,0,0,1,10.76,3.68A14.41,14.41,0,0,1,82,105.89a10.23,10.23,0,0,0-4.06-1.5,32.76,32.76,0,0,0-7.41-1,28.45,28.45,0,0,0-6.53.68A26,26,0,0,0,54.9,108c-3.11,2.18-4.7,4.81-4.7,7.81,0,3.6,2.15,6.53,6.3,8.71a25.06,25.06,0,0,0,11.4,2.63,24.49,24.49,0,0,0,11.32-2.33,18.64,18.64,0,0,0,4.54-3l.07,4a.93.93,0,0,0,.86.89l3.56.37A1.16,1.16,0,0,0,89.54,126V114.55a26.93,26.93,0,0,0-.44-5.11A21.52,21.52,0,0,0,81.31,96.29ZM80.7,115c.9,3.16-2.37,6.74-7.32,8s-9.69-.29-10.6-3.45,2.37-6.74,7.32-8S79.8,111.83,80.7,115Z"/><path class="cls-1" d="M37.78,88.44c-9.09.17-16.91,10.95-20.83,16.34l.27-38a1.15,1.15,0,0,0-1.43-1.08c-3.52.77-12.47,2.75-14.8,3.52A1.39,1.39,0,0,0,0,70.6c.24,7.49,1.77,55,1.6,66.65a1.11,1.11,0,0,0,1.45,1c12.13-3.45,14.23-17,17.39-25.19,2.84-7.39,3.73-10,10.44-16.23l.78,37.49a.53.53,0,0,0,.69.44c13.58-3,12.64-5.55,13.28-15.64C46,112.69,48.76,88.24,37.78,88.44Z"/><path class="cls-1" d="M119.43,89.11c-8.47-.64-21.77,3.49-24.18,4.25-.83.26,2.67,49.35,2.67,49.35a1.24,1.24,0,0,0,1.32,1.13l7.4-1.13-.72-18.94c3.77-.44,6.39-.78,7.93-1,5.7-.87,9.89-2.09,12.55-3.58,5.56-3.19,8.46-8.93,8.93-17C135.64,93.89,130.35,89.94,119.43,89.11Zm1,24.68c-2.07,2.09-6.1,3.24-12.16,3.45-.51,0-1.18,0-2,0a.52.52,0,0,1-.55-.48l-.48-11a.69.69,0,0,1,.63-.69c1.78-.19,3.24-.38,4.34-.47a57.36,57.36,0,0,1,7.37-.38,4.93,4.93,0,0,1,4.86,5.16A6.22,6.22,0,0,1,120.4,113.8Z"/><path class="cls-1" d="M208.59,79.88c-4.53,0-19.52,3-26.74,4.73a1.41,1.41,0,0,0-1.09,1.54l6.62,53.29a2.1,2.1,0,0,0,2.3,1.81l6-.57a1.32,1.32,0,0,0,1.2-1.39l-1.46-20c4.06-.64,6.88-1.13,8.53-1.45,6.13-1.21,10.6-2.74,13.42-4.52,5.88-3.8,8.79-10.36,9-19.44C226.31,84.59,220.43,79.89,208.59,79.88Zm2,29.77c-2.16,2.43-6.46,3.88-13,4.36-.66.08-1.57.08-2.73.16h0l-1.06-13.53h0c2.24-.32,4.06-.64,5.38-.81,3.73-.48,6.68-1.07,8.86-.64a5.22,5.22,0,0,1,4.55,5.51A7.11,7.11,0,0,1,210.63,109.65Z"/><path class="cls-1" d="M284.21,67.56l-9.81.31a.89.89,0,0,0-.79.93l.54,56a1.45,1.45,0,0,0,1.31,1.44l12.32,1.05a.88.88,0,0,0,.87-1L285,68.42A.84.84,0,0,0,284.21,67.56Z"/><path class="cls-1" d="M259.45,89.2c-4.83-3.7-13.22-6.71-21.63-8.72q-1.36-.32-2.31-.5A1.23,1.23,0,0,0,234,81.41l.94,4.66a3.24,3.24,0,0,0,2.63,2.34c2.05.36,3.7.65,5,.94a41.77,41.77,0,0,1,11.24,3.78,14.94,14.94,0,0,1,6.33,5.94,10.8,10.8,0,0,0-4.25-1.54,34.79,34.79,0,0,0-7.75-1,30.23,30.23,0,0,0-6.83.69,27.36,27.36,0,0,0-9.5,4c-3.25,2.24-4.91,4.94-4.91,8,0,3.7,2.25,6.71,6.58,9a26.56,26.56,0,0,0,11.91,2.7,26,26,0,0,0,11.83-2.39,19.52,19.52,0,0,0,4.75-3.09l.07,4.12a1,1,0,0,0,.9.91l3.72.38a1.21,1.21,0,0,0,1.38-1.14V108a27.22,27.22,0,0,0-.46-5.26A22,22,0,0,0,259.45,89.2Zm-1.2,19c.9,3.08-2.35,6.58-7.26,7.81s-9.62-.28-10.52-3.36,2.35-6.58,7.26-7.81S257.36,105.15,258.26,108.24Z"/></g></g></svg>