<?xml version="1.0" encoding="utf-8"?>
<!-- Generator: Adobe Illustrator 22.0.1, SVG Export Plug-In . SVG Version: 6.00 Build 0)  -->
<svg version="1.1" id="Layer_1" xmlns="http://www.w3.org/2000/svg" xmlns:xlink="http://www.w3.org/1999/xlink" x="0px" y="0px"
	 viewBox="0 0 163.3 261.1" style="enable-background:new 0 0 163.3 261.1;" xml:space="preserve">
<style type="text/css">
	.st0{fill:#FFFFFF;}
	.st1{fill:#EFCE0A;}
	.st2{fill:#F6941E;}
	.st3{fill:#3A3930;}
	.st4{fill:#F2DA51;}
	.st5{fill:#BFBEAF;}
</style>
<title>Asset 2</title>
<g id="Layer_2_1_">
	<g id="Layer_1-2">
		<path class="st0" d="M159,146.3c0-0.6-0.5-1.1-1.1-1.1l-12.6-0.2c-0.4,0-0.8,0.4-0.8,0.8l-3.4,29.8c-0.1,0.4,0.2,0.8,0.6,0.9
			l16.9,2.3c0.5,0,0.8-0.3,0.9-0.8c0,0,0-0.1,0-0.1L159,146.3z"/>
		<path class="st0" d="M158.7,136.1c4.3-1.9,6.3-7,2.6-10.4c-3.8-3.4-10.1-4.3-15.1-2.7s-8.2,5.8-4.3,10.2S153.5,138.3,158.7,136.1z
			"/>
		<path class="st0" d="M83.1,146.4c-4.7-3.7-12.9-6.7-21.2-8.7c-0.9-0.2-1.6-0.4-2.3-0.5c-0.7-0.2-1.3,0.2-1.5,0.9
			c0,0.2,0,0.3,0,0.5l0.9,4.6c0.3,1.2,1.3,2.1,2.6,2.3c2,0.4,3.6,0.6,4.9,0.9c3.8,0.7,7.5,2,11,3.8c2.6,1.3,4.8,3.4,6.2,5.9
			c-1.3-0.8-2.7-1.3-4.2-1.5c-2.5-0.6-5-1-7.6-1c-2.2,0-4.5,0.2-6.7,0.7c-3.3,0.7-6.5,2.1-9.3,4c-3.2,2.2-4.8,4.9-4.8,8
			c0,3.7,2.2,6.7,6.4,8.9c3.6,1.8,7.6,2.7,11.6,2.7c4,0.1,8-0.7,11.6-2.4c1.7-0.8,3.3-1.8,4.6-3.1l0.1,4.1c0,0.5,0.4,0.9,0.9,0.9
			l3.6,0.4c0.7,0.1,1.3-0.4,1.3-1c0,0,0-0.1,0-0.1V165c0-1.8-0.1-3.5-0.4-5.2C90.1,154.5,87.3,149.7,83.1,146.4z M82.5,165.5
			c0.9,3.2-2.4,6.9-7.5,8.2s-9.9-0.3-10.8-3.5s2.4-6.9,7.5-8.2S81.6,162.3,82.5,165.5L82.5,165.5z"/>
		<path class="st0" d="M38.6,138.4c-9.3,0.2-17.3,11.2-21.3,16.7l0.3-38.8c0-0.6-0.6-1.2-1.2-1.1c-0.1,0-0.2,0-0.3,0
			c-3.6,0.8-12.8,2.8-15.1,3.6c-0.6,0.2-1,0.7-1,1.4c0.2,7.7,1.8,56.2,1.6,68.1c0,0.6,0.5,1.1,1.2,1.1c0.1,0,0.2,0,0.3-0.1
			c12.4-3.5,14.5-17.3,17.8-25.8c2.9-7.6,3.8-10.2,10.7-16.6l0.8,38.3c0,0.3,0.3,0.5,0.6,0.5c0,0,0.1,0,0.1,0
			c13.9-3.1,12.9-5.7,13.6-16C47,163.1,49.8,138.1,38.6,138.4z"/>
		<path class="st0" d="M122.1,139c-8.7-0.6-22.2,3.6-24.7,4.4c-0.8,0.3,2.7,50.4,2.7,50.4c0.1,0.7,0.7,1.2,1.3,1.2l7.6-1.2
			l-0.7-19.4c3.8-0.4,6.5-0.8,8.1-1c5.8-0.9,10.1-2.1,12.8-3.7c5.7-3.3,8.6-9.1,9.1-17.4C138.6,143.9,133.2,139.9,122.1,139z
			 M123.1,164.2c-2.1,2.1-6.2,3.3-12.4,3.5c-0.5,0-1.2,0-2,0c-0.3,0-0.5-0.2-0.6-0.5l-0.5-11.2c0-0.4,0.3-0.7,0.7-0.7
			c1.8-0.2,3.3-0.4,4.4-0.5c2.5-0.3,5-0.4,7.5-0.4c2.8,0,5,2.2,5,5c0,0.1,0,0.2,0,0.3C125.1,161.5,124.3,163.1,123.1,164.2
			L123.1,164.2z"/>
		<path class="st0" d="M53.2,199.4c-4.5,0-19.6,3-26.9,4.8c-0.7,0.2-1.2,0.8-1.1,1.6l6.6,53.6c0.2,1.1,1.2,1.9,2.3,1.8l6-0.6
			c0.7-0.1,1.3-0.7,1.2-1.4L39.9,239c4.1-0.6,6.9-1.1,8.6-1.5c6.2-1.2,10.7-2.8,13.5-4.6c5.9-3.8,8.8-10.4,9-19.5
			C71,204.1,65.1,199.4,53.2,199.4z M55.2,229.3c-2.2,2.4-6.5,3.9-13.1,4.4c-0.7,0.1-1.6,0.1-2.8,0.2l0,0l-1.1-13.6l0,0
			c2.2-0.3,4.1-0.6,5.4-0.8c3.8-0.5,6.7-1.1,8.9-0.6c2.7,0.4,4.7,2.8,4.6,5.5C57.2,226.2,56.5,228,55.2,229.3L55.2,229.3z"/>
		<path class="st0" d="M131.6,186.5l-10.3,0.3c-0.5,0.1-0.9,0.5-0.8,1l0.6,58.8c0,0.8,0.6,1.4,1.4,1.5l12.9,1.1
			c0.5,0,0.9-0.4,0.9-0.9c0,0,0,0,0-0.1l-3.8-60.8C132.4,186.9,132.1,186.5,131.6,186.5C131.6,186.5,131.6,186.5,131.6,186.5z"/>
		<path class="st0" d="M105.8,209.2c-5.1-3.9-13.9-7-22.7-9.2c-1-0.2-1.8-0.4-2.4-0.5c-0.7-0.2-1.4,0.2-1.6,0.9
			c-0.1,0.2-0.1,0.4,0,0.6l1,4.9c0.4,1.3,1.4,2.3,2.8,2.5c2.2,0.4,3.9,0.7,5.3,1c5.2,1.1,9.1,2.4,11.8,4c2.8,1.4,5.1,3.5,6.7,6.2
			c-1.4-0.8-2.9-1.4-4.5-1.6c-2.7-0.7-5.4-1-8.1-1.1c-2.4,0-4.8,0.2-7.2,0.7c-3.6,0.8-7,2.2-10,4.2c-3.4,2.4-5.2,5.2-5.2,8.4
			c0,3.9,2.4,7.1,6.9,9.4c3.9,1.9,8.2,2.9,12.5,2.8c4.3,0.1,8.6-0.7,12.5-2.6c1.8-0.8,3.5-1.9,5-3.2l0.1,4.3c0,0.5,0.4,1,0.9,1
			l3.9,0.4c0.7,0.1,1.3-0.4,1.4-1.1c0,0,0-0.1,0-0.1v-12.4c0-1.9-0.1-3.7-0.5-5.5C113.4,217.8,110.3,212.7,105.8,209.2z
			 M104.5,229.2c0.9,3.2-2.5,6.9-7.6,8.2s-10.1-0.3-11-3.5s2.5-6.9,7.6-8.2S103.6,226,104.5,229.2L104.5,229.2z"/>
		<path class="st1" d="M105.4,83.7c0-0.1,0-0.2,0-0.2c1.1-2.9,1.7-6,1.9-9.1c7.3-12.1-1.7-38.7-3.2-39.4c-4.5-2.2-36-7.2-36.3-3.3
			c-0.7,10.8-1.6,21.7-2.3,32.6c-0.2,3.2-2.1,10.8-6.5,6.3c0,3.8,0.5,7.5,1.7,11.1c0,0.1,0,0.2-0.1,0.3c-6.1,6.3-7.1,14.3-6.4,20.5
			c1.7-0.8,3.5-1.2,5.4-1.1c-0.7-5,0.6-10.1,3.6-14.1c0.1-0.1,0.3-0.1,0.4,0c0,0,0,0,0,0c2,2.8,4.9,4.9,8.1,5.9
			c0.1,0,0.2,0.1,0.2,0.2V114l4.9,0.9V94.5c0-0.1,0.1-0.3,0.2-0.3c0,0,0,0,0.1,0c1.8,0.2,3.7,0.3,5.6,0.3c2.1,0,4.2-0.2,6.3-0.4
			c0.1,0,0.3,0.1,0.3,0.2c0,0,0,0,0,0v19.5l4.9,0.9V93.4c0-0.1,0.1-0.2,0.2-0.2c2.8-0.8,5.4-2.2,7.5-4.2c0.1-0.1,0.3-0.1,0.4,0
			c0,0,0,0,0.1,0.1c2,4.2,2.7,8.8,2.1,13.4c1.8-0.4,3.7-0.2,5.4,0.5C110.8,93.4,107.8,87.1,105.4,83.7z"/>
		<path class="st2" d="M97.3,62.3c-7.9,0.6-15.8,0.1-23.6-1.6c-3.2-0.8-4.4,1.6-2.5,4c2.3,2.9,6.5,4.2,9.9,4.8
			c5.7,1.1,11.5,1,17.2-0.2c2.1-0.5,7.7-3.1,5.6-6.1C102.8,61.5,99.2,62.2,97.3,62.3z"/>
		<path class="st3" d="M87.4,65.8c-3.2-0.3-6.4-0.8-9.5-1.5c-1.1-0.3-3.2-1-3.4-0.3c-0.3,0.9,2.7,1.5,3.9,1.8c2,0.4,3.9,0.7,5.9,1
			c4.1,0.6,8.4,0.6,12.5,0c1.6-0.2,3.2-0.7,4.7-1.4c0.4-0.3,0.3-0.7-0.3-0.6C96.7,65.7,92,66.1,87.4,65.8z"/>
		<path class="st4" d="M85.5,72.9C77,72.8,69.8,73.4,70,81c-0.1,4.6,6.7,8.3,15.2,8.4s15.4-1.3,15.6-8.1C100.9,74.1,94,73,85.5,72.9
			z"/>
		<path class="st3" d="M89.1,10.4l-4,0.3L86,7.1c1.6,0,3.1-0.8,4-2.1c1-1.8-0.1-3.9-2.5-4.7s-5.1,0-6.1,1.8s0.1,3.9,2.5,4.7
			c0.3,0.1,0.7,0.2,1,0.2h0.3l-2.3,5.5l3.4-0.4l-3.4,6.1l4.4-0.6l-2.9,7.5c0.8,0,1.6,0.1,2.4,0.2l3.5-9.6l-4,0.4L89.1,10.4z"/>
		<path class="st2" d="M113.2,48.6l0.5,0.4L113.2,48.6z"/>
		<path class="st2" d="M114.2,49.3l0.5,0.4L114.2,49.3z"/>
		<path class="st3" d="M132.1,61c-0.8-0.7-2-0.5-2.6,0.3c0,0,0,0,0,0c-0.1,0.1-0.2,0.3-0.2,0.4l-7.3-1.8l-2.3-0.6
			c-0.1-3.1-1.4-6-3.5-8.2c-0.3-0.3-0.8-0.7-1.1-1c0.7,0.7-1.8,19.6-2.4,20c0.3-0.2,0.6-0.3,0.9-0.5c2.7-1.5,4.8-4,5.8-7l2.6,0.1
			l7.3,0.2c0,0.5,0.3,1,0.7,1.4c0.8,0.7,2,0.5,2.6-0.3c0,0,0,0,0,0C133.1,63,133,61.8,132.1,61C132.2,61,132.1,61,132.1,61z"/>
		<path class="st3" d="M91.3,59.6c0.4,0.2,0.8-0.5,1.2-1c1.4-1.8,4-2.2,5.8-0.8c0.5,0.4,0.9,0.9,1.2,1.5c0.1,0.2,0.2,0.6,0.5,0.7
			c0.1,0,0.2,0,0.3-0.1c0.1-0.2,0.1-0.3,0.1-0.5c-0.5-1.9-1.1-3.2-2.3-3.8c-1.1-0.7-2.5-0.8-3.7-0.4c-1.4,0.7-2.5,1.9-3.1,3.3
			C91.3,58.8,91,59.4,91.3,59.6z"/>
		<path class="st3" d="M77.2,59.4c0.1,0,0.2-0.1,0.2-0.1c0.2-0.2,0.3-0.4,0.4-0.6c0.7-1.2,1.9-2,3.3-2.2c1-0.1,2.1,0.3,2.9,0.9
			c0.4,0.3,0.8,0.7,1.1,1.1c0.2,0.2,0.6,0.8,0.7,0.9s0.3,0.3,0.5,0.2s0-0.7-0.2-0.9c-1.1-2.3-2.2-4.2-4.6-4.2
			c-2.1,0-3.6,1.7-4.7,4.1c-0.1,0.1-0.1,0.3-0.1,0.5c0,0.1,0.1,0.2,0.2,0.3C77,59.4,77.1,59.4,77.2,59.4z"/>
		<path class="st3" d="M88.6,113.1c-0.1,0-0.3,0.1-0.3,0.2c0,0,0,0,0,0l-0.7,16.4c0,0.5,0.4,1,0.9,1.1l14.2,0.1
			c0.3,0,0.5-0.3,0.5-0.6c0-0.2-0.1-0.3-0.2-0.4l-7.9-7.2c-0.3-0.3-0.4-0.7-0.3-1.1l1.6-6.6c0-0.1,0-0.3-0.2-0.3c0,0,0,0,0,0
			l-2.1-0.4l-4.9-0.9L88.6,113.1z"/>
		<path class="st3" d="M71.2,113.2c-0.1,0-0.3,0.1-0.3,0.2c0,0,0,0,0,0l-0.7,16.4c0,0.5,0.4,1,0.9,1.1l14.2,0.1
			c0.3,0,0.5-0.3,0.5-0.6c0-0.2-0.1-0.3-0.2-0.4l-7.9-7.2c-0.3-0.3-0.4-0.7-0.3-1.1l1.6-6.7c0-0.1,0-0.3-0.2-0.3c0,0,0,0,0,0
			l-2.1-0.4l-4.8-0.9L71.2,113.2z"/>
		<path class="st3" d="M104.4,101.7l-0.6,0.2c-0.8,0.2-0.7,0.8-0.7,1.2l-0.1,1.9c0,0.3-0.2,0.7-0.4,0.9c-0.6,0.6-1.2,1.3-1.7,2
			c-0.3,0.5-1.3,1.7-1.2,2.3c0,1.1,2.4-0.2,2.9-0.4c0.1,1.6-2.1,6.2,1.1,6.3c5.7,0,5.7-7.9,5.7-7.9c0-0.8,0.1-1.5,0.5-2.2l1.1-2.2
			c0.2-0.5,0-1.1-0.6-1.3c0,0,0,0,0,0l-0.4-0.2C108.1,101.5,106.2,101.3,104.4,101.7z"/>
		<path class="st3" d="M54.2,101.7c-0.8,0.4-1.2,1-1,1.8l0.9,3c0.2,0.6,0.3,1.3,0.3,2l0,0c0,1.4,0.3,2.7,0.9,4
			c0.5,1.1,1.2,2.1,2.1,2.9c0.7,0.5,1.5,0.7,2.3,0.5c0.7-0.2,1.2-0.7,1.5-1.3c0.5-1.3,0.7-2.8,0.6-4.2c1,0.6,2.2,0.9,2.5,0.3
			s-2.4-3.7-2.8-4.1l0,0c-0.4-0.4-0.7-1-0.6-1.6l0.2-3.4c0-0.5-0.3-0.9-0.8-1c-0.2,0-0.5-0.1-0.7-0.1
			C57.8,100.5,55.9,100.9,54.2,101.7z"/>
		<path class="st5" d="M114.2,68.3c1.4-2.3,2.4-4.9,2.7-7.6c0.4-2.7,0.3-5.5-0.4-8.2c-0.5-1.8-2-3-3.4-3.9c-1.1-0.7-1.9-1.9-2.2-3.1
			c-0.2-0.9-0.5-1.8-0.8-2.7c-3-8.7-10.9-15.1-19.5-17.1c-1.3-0.3-2.7-0.5-4-0.6c-0.8-0.1-1.6-0.1-2.4-0.2
			c-7.7-0.3-16.7,1.8-21.6,7.7c-1.3,1.6-2.4,3.5-3.2,5.4C59,39,57.9,40,56.7,40.5c-1.3,0.5-2.5,1.2-3.7,2c3.2,3.1,0.3,17.5-2.7,19.2
			l0,0c1.2,1.2,2.5,2.2,3.9,3.1c0.8,0.5,1.5,1.2,1.9,2.1c0.3,0.5,0.6,0.9,0.9,1.4c0.6,0.8,1.3,1.6,2,2.3c3.4,3.5,7.1,4.4,8.1,1.7
			c0.2-1,0.3-2.1,0.3-3.2c0.1-1.9,0.3-3.8,0.4-5.7c0.2-3.9,1.6-7.6,4-10.6c1.9-2.3,4.5-4,7.5-4.7c2.5-0.4,5-0.4,7.4,0
			c5.1,0.4,10.1,1.7,14.7,3.8c1.5,0.7,3.3,1.7,4.1,3.3c2.3,4.8-0.4,17,0.1,19c0.2,0.9,0.9,0.8,1.8,0.2c0.9-0.7,1.6-1.4,2.3-2.3
			c0.5-0.7,1.2-1.2,1.9-1.6l0.7-0.3l0.3-0.2C113.2,69.5,113.7,68.9,114.2,68.3z"/>
		<path class="st3" d="M53,42.4c-2.8,1.7-4.9,4.2-6,7.3H44l-9.8-0.1c0-0.5-0.2-1.1-0.6-1.4c-0.8-0.8-2.1-0.8-2.8,0c0,0,0,0-0.1,0.1
			c-0.8,0.8-0.7,2.1,0.1,2.9c0.8,0.8,2.1,0.7,2.8-0.1c0,0,0,0,0,0c0.2-0.2,0.3-0.4,0.4-0.7l9.6,2.7l2.8,0.7c0.3,3.1,1.7,5.9,3.9,8
			l0,0c3-1.6,5.2-4.4,6.1-7.6C57.6,49.8,55.5,43.5,53,42.4z"/>
		<path class="st5" d="M52.8,46.7c-0.2-0.4-0.7-0.6-1.1-0.4c0,0,0,0,0,0c-0.4,0.3-0.4,0.8-0.2,1.1c0.2,0.4,0.7,0.6,1.1,0.4
			c0,0,0,0,0,0C53,47.6,53.1,47.1,52.8,46.7z"/>
		<path class="st5" d="M50.3,58.4c-0.4,0.2-0.5,0.7-0.3,1.1c0.3,0.3,0.8,0.3,1.1,0c0.4-0.3,0.5-0.8,0.2-1.1
			C51,58.1,50.6,58.1,50.3,58.4z"/>
		<path class="st5" d="M53.8,55.6c0.2-0.4,0.1-0.9-0.3-1.1c-0.4-0.1-0.9,0.1-1,0.5c-0.2,0.4-0.1,0.9,0.3,1.1
			C53.2,56.3,53.7,56,53.8,55.6z"/>
		
			<ellipse transform="matrix(0.9998 -1.999600e-02 1.999600e-02 0.9998 -1.0087 1.0888)" class="st5" cx="53.9" cy="51" rx="0.7" ry="0.9"/>
		<polygon class="st3" points="78.1,43 78.1,39.2 80.8,42.1 82.1,38.3 84.6,41.4 88.4,34.3 89.8,39.8 91.7,38.5 90.8,42.6 
			96.3,39.7 96.1,43.6 99.2,42.6 102.1,46.2 99.5,41.5 97,42.4 97.2,38.3 92,40.9 92.9,36.6 90.3,38.4 88.7,32 84.5,39.9 81.7,36.7 
			80.5,40.5 77.2,37 77.3,41 75.3,39 72.7,42 75.2,40.1 		"/>
	</g>
</g>
</svg>
