<svg xmlns="http://www.w3.org/2000/svg" viewBox="0 0 378.69 140.77"><defs><style>.cls-1{fill:#fff;}.cls-2{fill:#efce0a;}.cls-3{fill:#f6941e;}.cls-4{fill:#3a3930;}.cls-5{fill:#f2da51;}.cls-6{fill:#4e4d3f;}.cls-7{fill:#bfbeaf;}</style></defs><title>Asset 4</title><g id="Layer_2" data-name="Layer 2"><g id="Layer_1-2" data-name="Layer 1"><path class="cls-1" d="M162.44,91.05a1.15,1.15,0,0,0-1.16-1.1l-12.89-.26a.84.84,0,0,0-.79.8l-3.47,30.45a.83.83,0,0,0,.63,1L162,124.23a.85.85,0,0,0,.87-.93Z"/><path class="cls-1" d="M162.18,80.6c4.44-1.94,6.45-7.12,2.62-10.65s-10.36-4.43-15.41-2.74S141,73.11,145,77.62,156.84,82.89,162.18,80.6Z"/><path class="cls-1" d="M84.9,91.11c-4.83-3.76-13.21-6.82-21.61-8.86q-1.36-.32-2.31-.5a1.24,1.24,0,0,0-1.51,1.45l.94,4.73A3.25,3.25,0,0,0,63,90.31c2,.36,3.7.66,5,1A41.26,41.26,0,0,1,79.28,95.1a15,15,0,0,1,6.32,6,10.68,10.68,0,0,0-4.24-1.57,34.2,34.2,0,0,0-7.74-1,29.7,29.7,0,0,0-6.82.71,27.09,27.09,0,0,0-9.48,4.08c-3.24,2.27-4.91,5-4.91,8.15,0,3.76,2.25,6.82,6.57,9.1a26.16,26.16,0,0,0,11.9,2.74,25.57,25.57,0,0,0,11.81-2.43,19.46,19.46,0,0,0,4.74-3.14l.07,4.18a1,1,0,0,0,.9.93l3.71.39a1.21,1.21,0,0,0,1.37-1.16V110.18a28.11,28.11,0,0,0-.46-5.34A22.47,22.47,0,0,0,84.9,91.11Zm-.64,19.53c.94,3.3-2.48,7-7.64,8.35s-10.12-.3-11.07-3.6,2.48-7,7.64-8.35S83.32,107.34,84.26,110.64Z"/><path class="cls-1" d="M39.44,82.92C30,83.09,21.79,94.35,17.69,100L18,60.33a1.2,1.2,0,0,0-1.49-1.13C12.8,60,3.46,62.06,1,62.88a1.45,1.45,0,0,0-1,1.41c.26,7.82,1.85,57.42,1.67,69.58a1.16,1.16,0,0,0,1.51,1.07c12.66-3.61,14.86-17.7,18.15-26.3,3-7.72,3.9-10.4,10.9-16.95L33,130.84a.55.55,0,0,0,.72.46C47.94,128.18,47,125.5,47.63,115,48.06,108.23,50.91,82.71,39.44,82.92Z"/><path class="cls-1" d="M124.7,83.62C115.85,83,102,87.27,99.45,88.06c-.87.27,2.79,51.52,2.79,51.52a1.3,1.3,0,0,0,1.38,1.18l7.72-1.18-.76-19.77c3.94-.46,6.67-.81,8.28-1.05,6-.91,10.32-2.18,13.1-3.74,5.81-3.33,8.84-9.32,9.32-17.75C141.62,88.61,136.09,84.48,124.7,83.62Zm1,25.77c-2.16,2.18-6.37,3.38-12.7,3.6-.53,0-1.23,0-2.09,0a.55.55,0,0,1-.57-.5l-.5-11.44a.72.72,0,0,1,.66-.72c1.86-.2,3.39-.4,4.53-.49a59.89,59.89,0,0,1,7.69-.4,5.15,5.15,0,0,1,5.07,5.39A6.49,6.49,0,0,1,125.7,109.39Z"/><path class="cls-1" d="M293.82,73.25c-4.65,0-20,3.1-27.46,4.85a1.44,1.44,0,0,0-1.11,1.58l6.8,54.73a2.16,2.16,0,0,0,2.36,1.86l6.12-.58a1.35,1.35,0,0,0,1.24-1.43l-1.5-20.5c4.17-.66,7.06-1.16,8.76-1.49,6.3-1.24,10.89-2.82,13.78-4.65,6-3.9,9-10.64,9.2-20C312,78.09,306,73.26,293.82,73.25Zm2.1,30.57c-2.21,2.49-6.64,4-13.36,4.48-.68.08-1.62.08-2.81.16h0l-1.09-13.9h0c2.3-.33,4.17-.66,5.53-.83,3.83-.5,6.86-1.1,9.1-.66A5.36,5.36,0,0,1,298,98.75,7.3,7.3,0,0,1,295.92,103.82Z"/><path class="cls-1" d="M373.93,60l-10.53.33a1,1,0,0,0-.85,1l.58,60.08a1.55,1.55,0,0,0,1.41,1.54l13.22,1.13a1,1,0,0,0,.93-1.07L374.8,61A.91.91,0,0,0,373.93,60Z"/><path class="cls-1" d="M347.6,83.25c-5.19-4-14.19-7.2-23.22-9.36q-1.46-.34-2.48-.53a1.32,1.32,0,0,0-1.62,1.53l1,5a3.47,3.47,0,0,0,2.83,2.51c2.2.38,4,.7,5.39,1,5.27,1.16,9.3,2.49,12.07,4.06a16,16,0,0,1,6.79,6.38,11.6,11.6,0,0,0-4.56-1.66,37.35,37.35,0,0,0-8.31-1.08,32.44,32.44,0,0,0-7.33.75A29.37,29.37,0,0,0,318,96.17c-3.49,2.4-5.28,5.3-5.28,8.61,0,4,2.41,7.21,7.06,9.61a28.51,28.51,0,0,0,12.79,2.9,27.87,27.87,0,0,0,12.7-2.57,21,21,0,0,0,5.1-3.31l.07,4.42a1,1,0,0,0,1,1l4,.41a1.3,1.3,0,0,0,1.48-1.23V103.4a29.22,29.22,0,0,0-.49-5.64A23.66,23.66,0,0,0,347.6,83.25Zm-1.29,20.44c1,3.31-2.53,7.06-7.8,8.38s-10.32-.3-11.29-3.61,2.53-7.06,7.8-8.38S345.35,100.38,346.32,103.69Z"/><path class="cls-2" d="M239.27,83.73a.24.24,0,0,1,0-.24,29.64,29.64,0,0,0,1.88-9.12c7.35-12.11-1.72-38.69-3.23-39.42-4.53-2.2-36-7.18-36.29-3.32-.73,10.85-1.57,21.69-2.26,32.55-.21,3.24-2.12,10.82-6.51,6.35a36,36,0,0,0,1.67,11.13.25.25,0,0,1-.06.26c-6.12,6.3-7.11,14.33-6.37,20.46a11.05,11.05,0,0,1,5.38-1.07A19.25,19.25,0,0,1,197,87.19a.26.26,0,0,1,.41,0,16.1,16.1,0,0,0,8.14,5.91.26.26,0,0,1,.18.24V114l4.87.94V94.52a.25.25,0,0,1,.29-.26,43.46,43.46,0,0,0,5.55.34,58.11,58.11,0,0,0,6.35-.41.25.25,0,0,1,.28.26v19.47l4.87.94V93.36a.26.26,0,0,1,.18-.25,17.81,17.81,0,0,0,7.5-4.22.25.25,0,0,1,.41.06,23.76,23.76,0,0,1,2.1,13.41,9.2,9.2,0,0,1,5.41.54C244.61,93.4,241.59,87.06,239.27,83.73Z"/><path class="cls-3" d="M231.14,62.31a82.39,82.39,0,0,1-23.58-1.59c-3.22-.8-4.4,1.59-2.46,4,2.33,2.91,6.46,4.19,9.95,4.83a42.47,42.47,0,0,0,17.16-.18c2.14-.52,7.74-3.09,5.64-6.11C236.62,61.51,233,62.16,231.14,62.31Z"/><path class="cls-4" d="M221.21,65.81a67.05,67.05,0,0,1-9.52-1.48c-1.06-.27-3.22-1-3.44-.32-.27.88,2.65,1.54,3.88,1.79,2,.4,3.95.73,5.95,1a40.53,40.53,0,0,0,12.49,0,14.82,14.82,0,0,0,4.72-1.39c.44-.28.28-.73-.27-.62A51.67,51.67,0,0,1,221.21,65.81Z"/><path class="cls-5" d="M219.35,72.94c-8.49-.1-15.73.51-15.55,8.07-.1,4.55,6.71,8.32,15.21,8.42s15.41-1.29,15.55-8.07C234.71,74.11,227.85,73,219.35,72.94Z"/><path class="cls-6" d="M223,10.43l-4,.28.82-3.59a4.68,4.68,0,0,0,4-2.09c1-1.8-.12-3.91-2.5-4.71s-5.13,0-6.13,1.8.12,3.91,2.5,4.71a5.9,5.9,0,0,0,1,.24l.3,0-2.25,5.45,3.4-.38-3.41,6.13,4.43-.57-2.92,7.45q1.23,0,2.42.16L224,15.8l-4,.38Z"/><path class="cls-3" d="M247,48.57l.54.39Z"/><path class="cls-3" d="M248,49.3l.48.4Z"/><path class="cls-6" d="M265.95,61a1.87,1.87,0,0,0-2.65.28,1.9,1.9,0,0,0-.24.39l-7.34-1.85-2.35-.58A12.5,12.5,0,0,0,249.85,51c-.31-.33-.76-.74-1.11-1.05.7.65-1.76,19.56-2.45,20q.47-.24.91-.5a12.38,12.38,0,0,0,5.75-7l2.62.06,7.31.16a1.91,1.91,0,0,0,.69,1.39,1.87,1.87,0,0,0,2.65-.28A1.93,1.93,0,0,0,265.95,61Z"/><path class="cls-4" d="M225.17,59.59c.42.2.81-.53,1.18-1.05a4.13,4.13,0,0,1,7,.66c.12.23.24.62.51.71a.32.32,0,0,0,.3-.06.65.65,0,0,0,.05-.51c-.48-1.92-1.12-3.16-2.28-3.79a4.12,4.12,0,0,0-3.71-.36,6.6,6.6,0,0,0-3.05,3.32C225.11,58.76,224.83,59.43,225.17,59.59Z"/><path class="cls-4" d="M211,59.42a.43.43,0,0,0,.21-.13,4.49,4.49,0,0,0,.41-.61,4.33,4.33,0,0,1,3.34-2.15,4.19,4.19,0,0,1,2.89.93,7.22,7.22,0,0,1,1.12,1.09c.17.2.62.82.69.93s.32.33.52.17,0-.66-.17-.92c-1.09-2.35-2.21-4.16-4.61-4.16-2.11,0-3.56,1.68-4.65,4.06a1.06,1.06,0,0,0-.14.45.4.4,0,0,0,.16.31A.28.28,0,0,0,211,59.42Z"/><path class="cls-6" d="M222.43,113.14a.24.24,0,0,0-.27.25l-.67,16.39a1,1,0,0,0,.9,1.06l14.25.1a.55.55,0,0,0,.28-1L229,122.73a1.08,1.08,0,0,1-.34-1.08l1.63-6.69a.27.27,0,0,0-.19-.34l-2.13-.41-4.87-.94Z"/><path class="cls-6" d="M205.07,113.22a.24.24,0,0,0-.27.25l-.67,16.39a1,1,0,0,0,.9,1.06l14.25.1a.55.55,0,0,0,.28-1l-7.88-7.23a1.08,1.08,0,0,1-.34-1.08L213,115a.27.27,0,0,0-.19-.34l-2.11-.41-4.87-.94Z"/><path class="cls-6" d="M238.18,101.71l-.62.16c-.8.24-.71.83-.73,1.16l-.13,1.9a1.42,1.42,0,0,1-.41.89,15.54,15.54,0,0,0-1.71,2c-.33.47-1.27,1.71-1.25,2.32,0,1.12,2.43-.21,2.86-.44.07,1.6-2.07,6.17,1.14,6.33,5.66,0,5.66-7.88,5.66-7.93a4.51,4.51,0,0,1,.48-2.18l1.1-2.18a1,1,0,0,0-.58-1.31l-.39-.18A9.2,9.2,0,0,0,238.18,101.71Z"/><path class="cls-6" d="M188.08,101.72c-.75.45-1.2,1-1,1.8l.94,3a7,7,0,0,1,.31,2h0a10.06,10.06,0,0,0,.88,4,7.64,7.64,0,0,0,2.12,2.94,2.7,2.7,0,0,0,2.35.51,2.25,2.25,0,0,0,1.47-1.29,9.19,9.19,0,0,0,.61-4.17c1.05.55,2.19.94,2.49.29s-2.37-3.74-2.8-4.13h0a2,2,0,0,1-.62-1.6l.18-3.37a.92.92,0,0,0-.82-1,5,5,0,0,0-.72-.08A11.05,11.05,0,0,0,188.08,101.72Z"/><path class="cls-7" d="M248,68.26a20.08,20.08,0,0,0,2.74-7.62,20.29,20.29,0,0,0-.42-8.23c-.49-1.76-2-3-3.43-3.94a5.22,5.22,0,0,1-2.17-3.14,25.65,25.65,0,0,0-.78-2.71c-3-8.71-10.89-15.1-19.47-17.12a31.27,31.27,0,0,0-4-.64q-1.16-.12-2.37-.16c-7.71-.27-16.67,1.79-21.56,7.66a22.19,22.19,0,0,0-3.19,5.39,5.22,5.22,0,0,1-2.85,2.71,21.47,21.47,0,0,0-3.72,2c3.22,3.09.31,17.54-2.66,19.24l0,0a20.6,20.6,0,0,0,3.92,3.1,5.6,5.6,0,0,1,1.94,2.09,12.73,12.73,0,0,0,.87,1.37,20.28,20.28,0,0,0,1.91,2.24c3.4,3.46,7.05,4.42,8.12,1.66a12.56,12.56,0,0,0,.26-3.14c.11-1.89.27-3.78.4-5.67a18.27,18.27,0,0,1,4-10.63,14,14,0,0,1,7.46-4.68,23.48,23.48,0,0,1,7.43,0,44.29,44.29,0,0,1,14.7,3.76c1.51.73,3.35,1.71,4.13,3.31,2.33,4.75-.4,17,.06,19,.22.95.93.79,1.75.19A12.66,12.66,0,0,0,243.4,72a5.2,5.2,0,0,1,1.93-1.59l.71-.35.26-.15A5.06,5.06,0,0,0,248,68.26Z"/><path class="cls-6" d="M186.82,42.45a14.22,14.22,0,0,0-6.05,7.26l-2.94,0-9.76-.12a2.07,2.07,0,0,0-.63-1.43,2,2,0,0,0-2.88.07,2.09,2.09,0,0,0,.07,2.92,2,2,0,0,0,2.88-.07,2.06,2.06,0,0,0,.42-.68L177.5,53l2.76.74a12.55,12.55,0,0,0,3.89,8h0a12.8,12.8,0,0,0,6.14-7.61C191.44,49.83,189.38,43.51,186.82,42.45Z"/><path class="cls-7" d="M186.67,46.69a.8.8,0,0,0-1.07-.38.83.83,0,0,0-.19,1.13.8.8,0,0,0,1.07.38A.83.83,0,0,0,186.67,46.69Z"/><path class="cls-7" d="M184.09,58.37a.83.83,0,0,0-.22,1.13.8.8,0,0,0,1.13,0,.83.83,0,0,0,.22-1.13A.8.8,0,0,0,184.09,58.37Z"/><path class="cls-7" d="M187.64,55.62a.82.82,0,0,0-.34-1.1.81.81,0,0,0-1,.52.82.82,0,0,0,.34,1.1A.81.81,0,0,0,187.64,55.62Z"/><ellipse class="cls-7" cx="187.63" cy="51.11" rx="0.73" ry="0.88" transform="translate(-0.86 3.28) rotate(-1)"/><polygon class="cls-6" points="211.97 43.04 211.91 39.17 214.65 42.08 215.9 38.34 218.4 41.36 222.27 34.32 223.6 39.79 225.54 38.5 224.66 42.59 230.09 39.67 229.91 43.64 232.98 42.61 235.95 46.22 233.36 41.55 230.83 42.42 230.97 38.26 225.87 40.95 226.75 36.6 224.12 38.39 222.53 32.01 218.28 39.86 215.55 36.68 214.32 40.52 211.06 36.96 211.09 40.99 209.14 38.98 206.52 42.02 209.08 40.1 211.97 43.04"/></g></g></svg>