<?xml version="1.0" encoding="utf-8"?>
<!-- Generator: Adobe Illustrator 22.0.1, SVG Export Plug-In . SVG Version: 6.00 Build 0)  -->
<svg version="1.1" id="Layer_1" xmlns="http://www.w3.org/2000/svg" xmlns:xlink="http://www.w3.org/1999/xlink" x="0px" y="0px"
	 viewBox="0 0 378.7 140.8" style="enable-background:new 0 0 378.7 140.8;" xml:space="preserve">
<style type="text/css">
	.st0{fill:#FFFFFF;}
	.st1{fill:#EFCE0A;}
	.st2{fill:#F6941E;}
	.st3{fill:#3A3930;}
	.st4{fill:#F2DA51;}
	.st5{fill:#BFBEAF;}
</style>
<title>Asset 4</title>
<g id="Layer_2_1_">
	<g id="Layer_1-2">
		<path class="st0" d="M162.4,91c0-0.6-0.5-1.1-1.2-1.1l-12.9-0.3c-0.4,0-0.8,0.4-0.8,0.8l-3.5,30.4c-0.1,0.4,0.2,0.9,0.6,1
			c0,0,0,0,0,0l17.2,2.3c0.5,0,0.9-0.4,0.9-0.8c0,0,0-0.1,0-0.1L162.4,91z"/>
		<path class="st0" d="M162.2,80.6c4.4-1.9,6.4-7.1,2.6-10.7s-10.4-4.4-15.4-2.7s-8.4,5.9-4.4,10.4S156.8,82.9,162.2,80.6z"/>
		<path class="st0" d="M84.9,91.1c-4.8-3.8-13.2-6.8-21.6-8.9c-0.9-0.2-1.7-0.4-2.3-0.5c-0.7-0.2-1.3,0.2-1.5,0.9c0,0.2,0,0.4,0,0.5
			l0.9,4.7c0.3,1.2,1.3,2.2,2.6,2.4c2,0.4,3.7,0.7,5,1c3.9,0.7,7.7,2,11.3,3.8c2.7,1.3,4.9,3.4,6.3,6c-1.3-0.8-2.7-1.4-4.2-1.6
			c-2.5-0.6-5.1-1-7.7-1c-2.3,0-4.6,0.2-6.8,0.7c-3.4,0.7-6.6,2.1-9.5,4.1c-3.2,2.3-4.9,5-4.9,8.2c0,3.8,2.2,6.8,6.6,9.1
			c3.7,1.8,7.8,2.8,11.9,2.7c4.1,0.1,8.1-0.7,11.8-2.4c1.7-0.8,3.3-1.9,4.7-3.1l0.1,4.2c0,0.5,0.4,0.9,0.9,0.9l3.7,0.4
			c0.7,0.1,1.3-0.4,1.4-1c0,0,0-0.1,0-0.1v-11.9c0-1.8-0.1-3.6-0.5-5.3C92.1,99.4,89.2,94.5,84.9,91.1z M84.3,110.6
			c0.9,3.3-2.5,7-7.6,8.3s-10.1-0.3-11.1-3.6s2.5-7,7.6-8.3S83.3,107.3,84.3,110.6z"/>
		<path class="st0" d="M39.4,82.9C30,83.1,21.8,94.3,17.7,100L18,60.3c0-0.7-0.6-1.2-1.2-1.2c-0.1,0-0.2,0-0.3,0
			C12.8,60,3.5,62.1,1,62.9c-0.6,0.2-1,0.8-1,1.4c0.3,7.8,1.9,57.4,1.7,69.6c0,0.6,0.6,1.1,1.2,1.1c0.1,0,0.2,0,0.3-0.1
			c12.7-3.6,14.9-17.7,18.1-26.3c3-7.7,3.9-10.4,10.9-16.9l0.8,39.1c0,0.3,0.3,0.5,0.6,0.5c0,0,0.1,0,0.1,0
			c14.2-3.1,13.3-5.8,13.9-16.3C48.1,108.2,50.9,82.7,39.4,82.9z"/>
		<path class="st0" d="M124.7,83.6c-8.8-0.6-22.7,3.6-25.2,4.4c-0.9,0.3,2.8,51.5,2.8,51.5c0.1,0.7,0.7,1.2,1.4,1.2l7.7-1.2
			l-0.8-19.8c3.9-0.5,6.7-0.8,8.3-1.1c6-0.9,10.3-2.2,13.1-3.7c5.8-3.3,8.8-9.3,9.3-17.8C141.6,88.6,136.1,84.5,124.7,83.6z
			 M125.7,109.4c-2.2,2.2-6.4,3.4-12.7,3.6c-0.5,0-1.2,0-2.1,0c-0.3,0-0.5-0.2-0.6-0.5l-0.5-11.4c0-0.4,0.3-0.7,0.7-0.7
			c1.9-0.2,3.4-0.4,4.5-0.5c2.6-0.3,5.1-0.4,7.7-0.4c2.8,0,5.1,2.4,5.1,5.2c0,0.1,0,0.1,0,0.2C127.7,106.6,127,108.2,125.7,109.4z"
			/>
		<path class="st0" d="M293.8,73.2c-4.6,0-20,3.1-27.5,4.8c-0.7,0.2-1.2,0.8-1.1,1.6l6.8,54.7c0.2,1.2,1.2,2,2.4,1.9l6.1-0.6
			c0.7-0.1,1.3-0.7,1.2-1.4l-1.5-20.5c4.2-0.7,7.1-1.2,8.8-1.5c6.3-1.2,10.9-2.8,13.8-4.7c6-3.9,9-10.6,9.2-20
			C312,78.1,306,73.3,293.8,73.2z M295.9,103.8c-2.2,2.5-6.6,4-13.4,4.5c-0.7,0.1-1.6,0.1-2.8,0.2l0,0l-1.1-13.9l0,0
			c2.3-0.3,4.2-0.7,5.5-0.8c3.8-0.5,6.9-1.1,9.1-0.7c2.8,0.3,4.9,2.8,4.7,5.7C298,100.6,297.2,102.5,295.9,103.8z"/>
		<path class="st0" d="M373.9,60l-10.5,0.3c-0.5,0.1-0.9,0.5-0.9,1l0.6,60.1c0,0.8,0.6,1.5,1.4,1.5l13.2,1.1c0.6,0,1-0.5,0.9-1.1
			c0,0,0,0,0,0l-3.9-62C374.9,60.5,374.5,60.1,373.9,60C374,60,373.9,60,373.9,60z"/>
		<path class="st0" d="M347.6,83.2c-5.2-4-14.2-7.2-23.2-9.4c-1-0.2-1.8-0.4-2.5-0.5c-0.7-0.2-1.4,0.2-1.6,1c0,0.2-0.1,0.4,0,0.6
			l1,5c0.4,1.3,1.5,2.3,2.8,2.5c2.2,0.4,4,0.7,5.4,1c5.3,1.2,9.3,2.5,12.1,4.1c2.8,1.4,5.2,3.6,6.8,6.4c-1.4-0.9-2.9-1.4-4.6-1.7
			c-2.7-0.7-5.5-1-8.3-1.1c-2.5,0-4.9,0.2-7.3,0.8c-3.6,0.8-7.1,2.3-10.2,4.3c-3.5,2.4-5.3,5.3-5.3,8.6c0,4,2.4,7.2,7.1,9.6
			c4,1.9,8.4,2.9,12.8,2.9c4.4,0.2,8.7-0.7,12.7-2.6c1.9-0.9,3.6-2,5.1-3.3l0.1,4.4c0,0.6,0.4,1,1,1l4,0.4c0.7,0.1,1.4-0.4,1.5-1.1
			c0,0,0-0.1,0-0.1v-12.6c0-1.9-0.1-3.8-0.5-5.6C355.4,92,352.2,86.8,347.6,83.2z M346.3,103.7c1,3.3-2.5,7.1-7.8,8.4
			s-10.3-0.3-11.3-3.6s2.5-7.1,7.8-8.4S345.4,100.4,346.3,103.7L346.3,103.7z"/>
		<path class="st1" d="M239.3,83.7c0-0.1,0-0.2,0-0.2c1.1-2.9,1.7-6,1.9-9.1c7.4-12.1-1.7-38.7-3.2-39.4c-4.5-2.2-36-7.2-36.3-3.3
			c-0.7,10.8-1.6,21.7-2.3,32.6c-0.2,3.2-2.1,10.8-6.5,6.3c0,3.8,0.5,7.5,1.7,11.1c0,0.1,0,0.2-0.1,0.3c-6.1,6.3-7.1,14.3-6.4,20.5
			c1.7-0.8,3.5-1.2,5.4-1.1c-0.7-5,0.5-10.1,3.5-14.1c0.1-0.1,0.3-0.1,0.4,0c0,0,0,0,0,0c2,2.8,4.9,4.9,8.1,5.9
			c0.1,0,0.2,0.1,0.2,0.2V114l4.9,0.9V94.5c0-0.1,0.1-0.3,0.2-0.3c0,0,0,0,0.1,0c1.8,0.2,3.7,0.3,5.6,0.3c2.1,0,4.2-0.2,6.4-0.4
			c0.1,0,0.3,0.1,0.3,0.2c0,0,0,0,0,0v19.5l4.9,0.9V93.4c0-0.1,0.1-0.2,0.2-0.2c2.8-0.8,5.4-2.2,7.5-4.2c0.1-0.1,0.3-0.1,0.4,0
			c0,0,0,0,0.1,0.1c2,4.2,2.7,8.8,2.1,13.4c1.8-0.4,3.7-0.2,5.4,0.5C244.6,93.4,241.6,87.1,239.3,83.7z"/>
		<path class="st2" d="M231.1,62.3c-7.9,0.6-15.8,0.1-23.6-1.6c-3.2-0.8-4.4,1.6-2.5,4c2.3,2.9,6.5,4.2,9.9,4.8
			c5.7,1.1,11.5,1,17.2-0.2c2.1-0.5,7.7-3.1,5.6-6.1C236.6,61.5,233,62.2,231.1,62.3z"/>
		<path class="st3" d="M221.2,65.8c-3.2-0.3-6.4-0.8-9.5-1.5c-1.1-0.3-3.2-1-3.4-0.3c-0.3,0.9,2.6,1.5,3.9,1.8c2,0.4,3.9,0.7,5.9,1
			c4.1,0.6,8.4,0.6,12.5,0c1.6-0.2,3.2-0.7,4.7-1.4c0.4-0.3,0.3-0.7-0.3-0.6C230.5,65.7,225.8,66.1,221.2,65.8z"/>
		<path class="st4" d="M219.4,72.9c-8.5-0.1-15.7,0.5-15.6,8.1c-0.1,4.6,6.7,8.3,15.2,8.4s15.4-1.3,15.6-8.1
			C234.7,74.1,227.9,73,219.4,72.9z"/>
		<path class="st3" d="M223,10.4l-4,0.3l0.8-3.6c1.6,0,3.1-0.8,4-2.1c1-1.8-0.1-3.9-2.5-4.7s-5.1,0-6.1,1.8s0.1,3.9,2.5,4.7
			c0.3,0.1,0.7,0.2,1,0.2h0.3l-2.2,5.4l3.4-0.4l-3.4,6.1l4.4-0.6l-2.9,7.5c0.8,0,1.6,0.1,2.4,0.2l3.3-9.5l-4,0.4L223,10.4z"/>
		<path class="st2" d="M247,48.6l0.5,0.4L247,48.6z"/>
		<path class="st2" d="M248,49.3l0.5,0.4L248,49.3z"/>
		<path class="st3" d="M266,61c-0.8-0.7-2-0.5-2.6,0.3c0,0,0,0,0,0c-0.1,0.1-0.2,0.3-0.2,0.4l-7.3-1.8l-2.4-0.6
			c-0.1-3.1-1.4-6-3.5-8.2c-0.3-0.3-0.8-0.7-1.1-1c0.7,0.7-1.8,19.6-2.4,20c0.3-0.2,0.6-0.3,0.9-0.5c2.7-1.5,4.8-4,5.8-7l2.6,0.1
			l7.3,0.2c0,0.5,0.3,1,0.7,1.4c0.8,0.7,2,0.5,2.6-0.3c0,0,0,0,0,0C266.9,63,266.8,61.8,266,61C266,61,266,61,266,61z"/>
		<path class="st3" d="M225.2,59.6c0.4,0.2,0.8-0.5,1.2-1c1.4-1.8,4-2.2,5.8-0.8c0.5,0.4,0.9,0.9,1.2,1.5c0.1,0.2,0.2,0.6,0.5,0.7
			c0.1,0,0.2,0,0.3-0.1c0.1-0.2,0.1-0.3,0.1-0.5c-0.5-1.9-1.1-3.2-2.3-3.8c-1.1-0.7-2.5-0.8-3.7-0.4c-1.4,0.7-2.5,1.9-3.1,3.3
			C225.1,58.8,224.8,59.4,225.2,59.6z"/>
		<path class="st3" d="M211,59.4c0.1,0,0.2-0.1,0.2-0.1c0.2-0.2,0.3-0.4,0.4-0.6c0.7-1.2,1.9-2,3.3-2.2c1-0.1,2.1,0.3,2.9,0.9
			c0.4,0.3,0.8,0.7,1.1,1.1c0.2,0.2,0.6,0.8,0.7,0.9s0.3,0.3,0.5,0.2s0-0.7-0.2-0.9c-1.1-2.3-2.2-4.2-4.6-4.2
			c-2.1,0-3.6,1.7-4.6,4.1c-0.1,0.1-0.1,0.3-0.1,0.5c0,0.1,0.1,0.2,0.2,0.3C210.8,59.4,210.9,59.4,211,59.4z"/>
		<path class="st3" d="M222.4,113.1c-0.1,0-0.3,0.1-0.3,0.2c0,0,0,0,0,0l-0.7,16.4c0,0.5,0.4,1,0.9,1.1l14.2,0.1
			c0.3,0,0.5-0.3,0.5-0.6c0-0.2-0.1-0.3-0.2-0.4l-7.9-7.2c-0.3-0.3-0.4-0.7-0.3-1.1l1.6-6.7c0-0.1,0-0.3-0.2-0.3c0,0,0,0,0,0
			l-2.1-0.4l-4.9-0.9L222.4,113.1z"/>
		<path class="st3" d="M205.1,113.2c-0.1,0-0.3,0.1-0.3,0.2c0,0,0,0,0,0l-0.7,16.4c0,0.5,0.4,1,0.9,1.1l14.2,0.1
			c0.3,0,0.5-0.3,0.5-0.6c0-0.2-0.1-0.3-0.2-0.4l-7.9-7.2c-0.3-0.3-0.4-0.7-0.3-1.1l1.7-6.7c0-0.1,0-0.3-0.2-0.3c0,0,0,0,0,0
			l-2.1-0.4l-4.9-0.9L205.1,113.2z"/>
		<path class="st3" d="M238.2,101.7l-0.6,0.2c-0.8,0.2-0.7,0.8-0.7,1.2l-0.1,1.9c0,0.3-0.2,0.7-0.4,0.9c-0.6,0.6-1.2,1.3-1.7,2
			c-0.3,0.5-1.3,1.7-1.2,2.3c0,1.1,2.4-0.2,2.9-0.4c0.1,1.6-2.1,6.2,1.1,6.3c5.7,0,5.7-7.9,5.7-7.9c0-0.8,0.1-1.5,0.5-2.2l1.1-2.2
			c0.2-0.5,0-1.1-0.6-1.3c0,0,0,0,0,0l-0.4-0.2C241.9,101.5,240,101.3,238.2,101.7z"/>
		<path class="st3" d="M188.1,101.7c-0.8,0.4-1.2,1-1,1.8l0.9,3c0.2,0.6,0.3,1.3,0.3,2l0,0c0,1.4,0.3,2.7,0.9,4
			c0.5,1.1,1.2,2.1,2.1,2.9c0.7,0.5,1.5,0.7,2.4,0.5c0.7-0.2,1.2-0.7,1.5-1.3c0.5-1.3,0.7-2.8,0.6-4.2c1.1,0.6,2.2,0.9,2.5,0.3
			s-2.4-3.7-2.8-4.1l0,0c-0.4-0.4-0.7-1-0.6-1.6l0.2-3.4c0-0.5-0.3-0.9-0.8-1c-0.2,0-0.5-0.1-0.7-0.1
			C191.6,100.5,189.8,100.9,188.1,101.7z"/>
		<path class="st5" d="M248,68.3c1.4-2.3,2.4-4.9,2.7-7.6c0.4-2.7,0.3-5.5-0.4-8.2c-0.5-1.8-2-3-3.4-3.9c-1.1-0.7-1.9-1.9-2.2-3.1
			c-0.2-0.9-0.5-1.8-0.8-2.7c-3-8.7-10.9-15.1-19.5-17.1c-1.3-0.3-2.7-0.5-4-0.6c-0.8-0.1-1.6-0.1-2.4-0.2
			c-7.7-0.3-16.7,1.8-21.6,7.7c-1.3,1.6-2.4,3.5-3.2,5.4c-0.6,1.2-1.6,2.2-2.9,2.7c-1.3,0.5-2.5,1.2-3.7,2
			c3.2,3.1,0.3,17.5-2.7,19.2l0,0c1.2,1.2,2.5,2.2,3.9,3.1c0.8,0.5,1.5,1.2,1.9,2.1c0.3,0.5,0.6,0.9,0.9,1.4
			c0.6,0.8,1.2,1.5,1.9,2.2c3.4,3.5,7.1,4.4,8.1,1.7c0.2-1,0.3-2.1,0.3-3.1c0.1-1.9,0.3-3.8,0.4-5.7c0.2-3.9,1.6-7.6,4-10.6
			c1.9-2.3,4.5-4,7.5-4.7c2.5-0.4,5-0.4,7.4,0c5.1,0.4,10.1,1.7,14.7,3.8c1.5,0.7,3.4,1.7,4.1,3.3c2.3,4.8-0.4,17,0.1,19
			c0.2,0.9,0.9,0.8,1.8,0.2c0.9-0.7,1.7-1.4,2.3-2.3c0.5-0.7,1.2-1.2,1.9-1.6l0.7-0.3l0.3-0.2C247,69.5,247.6,68.9,248,68.3z"/>
		<path class="st3" d="M186.8,42.4c-2.8,1.7-4.9,4.2-6.1,7.3h-2.9l-9.8-0.1c0-0.5-0.2-1.1-0.6-1.4c-0.8-0.8-2.1-0.8-2.8,0
			c0,0,0,0-0.1,0.1c-0.8,0.8-0.7,2.1,0.1,2.9c0.8,0.8,2.1,0.8,2.8,0c0,0,0,0,0.1-0.1c0.2-0.2,0.3-0.4,0.4-0.7l9.6,2.6l2.8,0.7
			c0.3,3.1,1.7,5.9,3.9,8l0,0c3-1.6,5.2-4.4,6.1-7.6C191.4,49.8,189.4,43.5,186.8,42.4z"/>
		<path class="st5" d="M186.7,46.7c-0.2-0.4-0.7-0.6-1.1-0.4c0,0,0,0,0,0c-0.4,0.3-0.4,0.8-0.2,1.1c0.2,0.4,0.7,0.6,1.1,0.4
			c0,0,0,0,0,0C186.8,47.6,186.9,47.1,186.7,46.7z"/>
		<path class="st5" d="M184.1,58.4c-0.4,0.3-0.5,0.8-0.2,1.1c0.3,0.3,0.8,0.3,1.1,0c0.4-0.3,0.5-0.8,0.2-1.1
			C184.9,58.1,184.4,58.1,184.1,58.4z"/>
		<path class="st5" d="M187.6,55.6c0.2-0.4,0.1-0.9-0.3-1.1c-0.4-0.1-0.9,0.1-1,0.5c-0.2,0.4-0.1,0.9,0.3,1.1
			C187.1,56.3,187.5,56,187.6,55.6z"/>
		
			<ellipse transform="matrix(0.9998 -1.745241e-02 1.745241e-02 0.9998 -0.8634 3.2824)" class="st5" cx="187.6" cy="51.1" rx="0.7" ry="0.9"/>
		<polygon class="st3" points="212,43 211.9,39.2 214.6,42.1 215.9,38.3 218.4,41.4 222.3,34.3 223.6,39.8 225.5,38.5 224.7,42.6 
			230.1,39.7 229.9,43.6 233,42.6 235.9,46.2 233.4,41.5 230.8,42.4 231,38.3 225.9,40.9 226.8,36.6 224.1,38.4 222.5,32 
			218.3,39.9 215.6,36.7 214.3,40.5 211.1,37 211.1,41 209.1,39 206.5,42 209.1,40.1 		"/>
	</g>
</g>
</svg>
