<svg xmlns="http://www.w3.org/2000/svg" viewBox="0 0 163.29 261.09"><defs><style>.cls-1{fill:#fff;}.cls-2{fill:#efce0a;}.cls-3{fill:#f6941e;}.cls-4{fill:#3a3930;}.cls-5{fill:#f2da51;}.cls-6{fill:#4e4d3f;}.cls-7{fill:#bfbeaf;}</style></defs><title>Asset 2</title><g id="Layer_2" data-name="Layer 2"><g id="Layer_1-2" data-name="Layer 1"><path class="cls-1" d="M159,146.32a1.13,1.13,0,0,0-1.13-1.08L145.25,145a.82.82,0,0,0-.77.78l-3.39,29.8a.81.81,0,0,0,.62.94l16.88,2.28a.83.83,0,0,0,.85-.91Z"/><path class="cls-1" d="M158.74,136.09c4.34-1.9,6.32-7,2.56-10.43s-10.14-4.34-15.08-2.68-8.16,5.78-4.26,10.19S153.51,138.33,158.74,136.09Z"/><path class="cls-1" d="M83.09,146.37c-4.72-3.68-12.93-6.67-21.15-8.67q-1.33-.31-2.26-.49a1.22,1.22,0,0,0-1.48,1.42l.92,4.63a3.18,3.18,0,0,0,2.58,2.33c2,.35,3.62.64,4.91.93a40.38,40.38,0,0,1,11,3.76,14.72,14.72,0,0,1,6.19,5.91,10.45,10.45,0,0,0-4.15-1.53,33.47,33.47,0,0,0-7.57-1,29.07,29.07,0,0,0-6.68.69,26.52,26.52,0,0,0-9.28,4c-3.18,2.23-4.8,4.91-4.8,8,0,3.68,2.2,6.68,6.43,8.9a25.61,25.61,0,0,0,11.65,2.69,25,25,0,0,0,11.56-2.38,19.05,19.05,0,0,0,4.64-3.07l.07,4.09a1,1,0,0,0,.88.91l3.63.38a1.19,1.19,0,0,0,1.35-1.14V165a27.52,27.52,0,0,0-.45-5.22A22,22,0,0,0,83.09,146.37Zm-.62,19.12c.92,3.23-2.42,6.89-7.48,8.18s-9.91-.29-10.83-3.52,2.42-6.89,7.48-8.18S81.55,162.26,82.47,165.49Z"/><path class="cls-1" d="M38.6,138.36c-9.29.17-17.28,11.19-21.29,16.7l.28-38.81a1.17,1.17,0,0,0-1.46-1.1c-3.6.79-12.75,2.81-15.13,3.6a1.42,1.42,0,0,0-1,1.38c.25,7.65,1.81,56.2,1.63,68.11a1.14,1.14,0,0,0,1.48,1.05C15.5,185.75,17.65,172,20.88,163.54c2.9-7.56,3.81-10.17,10.66-16.59l.8,38.31a.54.54,0,0,0,.7.45c13.88-3.06,12.91-5.68,13.57-16C47,163.13,49.83,138.15,38.6,138.36Z"/><path class="cls-1" d="M122.05,139c-8.66-.65-22.24,3.57-24.71,4.35-.85.27,2.73,50.43,2.73,50.43a1.27,1.27,0,0,0,1.35,1.16l7.56-1.16-.74-19.36c3.85-.45,6.53-.79,8.1-1,5.83-.89,10.1-2.14,12.82-3.66,5.68-3.26,8.65-9.13,9.12-17.37C138.61,143.93,133.2,139.88,122.05,139Zm1,25.23c-2.12,2.14-6.23,3.31-12.43,3.53-.52,0-1.2,0-2,0a.54.54,0,0,1-.56-.49l-.49-11.2a.7.7,0,0,1,.65-.71c1.82-.2,3.31-.39,4.43-.48a58.62,58.62,0,0,1,7.53-.39,5,5,0,0,1,5,5.27A6.36,6.36,0,0,1,123,164.27Z"/><path class="cls-1" d="M53.16,199.4c-4.55,0-19.62,3-26.88,4.75a1.41,1.41,0,0,0-1.09,1.55l6.65,53.57a2.11,2.11,0,0,0,2.31,1.82l6-.57a1.32,1.32,0,0,0,1.21-1.4L39.88,239c4.08-.65,6.91-1.13,8.58-1.46,6.16-1.22,10.66-2.76,13.49-4.55,5.91-3.82,8.83-10.42,9-19.54C71,204.14,65.06,199.41,53.16,199.4Zm2.05,29.92c-2.17,2.44-6.5,3.9-13.07,4.39-.67.08-1.58.08-2.75.16h0l-1.07-13.6h0c2.25-.32,4.08-.65,5.41-.81,3.75-.49,6.72-1.07,8.91-.64a5.25,5.25,0,0,1,4.57,5.54A7.14,7.14,0,0,1,55.21,229.32Z"/><path class="cls-1" d="M131.57,186.46l-10.31.33a.93.93,0,0,0-.83,1l.56,58.8a1.52,1.52,0,0,0,1.38,1.51l12.94,1.1a.93.93,0,0,0,.91-1l-3.81-60.78A.89.89,0,0,0,131.57,186.46Z"/><path class="cls-1" d="M105.79,209.19c-5.08-3.89-13.89-7-22.73-9.16q-1.43-.33-2.43-.52A1.3,1.3,0,0,0,79,201l1,4.89a3.4,3.4,0,0,0,2.77,2.46c2.16.37,3.89.68,5.27,1,5.16,1.14,9.1,2.43,11.81,4a15.7,15.7,0,0,1,6.65,6.24,11.35,11.35,0,0,0-4.46-1.62,36.55,36.55,0,0,0-8.14-1.05,31.76,31.76,0,0,0-7.18.73,28.75,28.75,0,0,0-10,4.22c-3.41,2.35-5.16,5.19-5.16,8.43,0,3.89,2.36,7.05,6.91,9.41a27.9,27.9,0,0,0,12.51,2.84A27.28,27.28,0,0,0,103.48,240a20.5,20.5,0,0,0,5-3.24l.07,4.32a1,1,0,0,0,.94,1l3.91.4a1.27,1.27,0,0,0,1.45-1.2V228.91a28.6,28.6,0,0,0-.48-5.52A23.16,23.16,0,0,0,105.79,209.19Zm-1.26,20c.94,3.24-2.47,6.91-7.63,8.2s-10.1-.29-11-3.53,2.47-6.91,7.63-8.2S103.59,226,104.54,229.19Z"/><path class="cls-2" d="M105.44,83.73a.24.24,0,0,1,0-.24,29.64,29.64,0,0,0,1.88-9.12c7.35-12.11-1.72-38.69-3.23-39.42-4.53-2.2-36-7.18-36.29-3.32-.73,10.85-1.57,21.69-2.26,32.55C65.31,67.41,63.4,75,59,70.53a36,36,0,0,0,1.67,11.13.25.25,0,0,1-.06.26c-6.12,6.3-7.11,14.33-6.37,20.46a11.05,11.05,0,0,1,5.38-1.07,19.25,19.25,0,0,1,3.59-14.11.26.26,0,0,1,.41,0,16.1,16.1,0,0,0,8.14,5.91.26.26,0,0,1,.18.24V114l4.87.94V94.52a.25.25,0,0,1,.29-.26,43.46,43.46,0,0,0,5.55.34A58.11,58.11,0,0,0,89,94.19a.25.25,0,0,1,.28.26v19.47l4.87.94V93.36a.26.26,0,0,1,.18-.25,17.81,17.81,0,0,0,7.5-4.22.25.25,0,0,1,.41.06,23.76,23.76,0,0,1,2.1,13.41,9.2,9.2,0,0,1,5.41.54C110.78,93.4,107.76,87.06,105.44,83.73Z"/><path class="cls-3" d="M97.31,62.31a82.39,82.39,0,0,1-23.58-1.59c-3.22-.8-4.4,1.59-2.46,4,2.33,2.91,6.46,4.19,9.95,4.83a42.47,42.47,0,0,0,17.16-.18c2.14-.52,7.74-3.09,5.64-6.11C102.79,61.51,99.15,62.16,97.31,62.31Z"/><path class="cls-4" d="M87.38,65.81a67.05,67.05,0,0,1-9.52-1.48c-1.06-.27-3.22-1-3.44-.32-.27.88,2.65,1.54,3.88,1.79,2,.4,3.95.73,5.95,1a40.53,40.53,0,0,0,12.49,0,14.82,14.82,0,0,0,4.72-1.39c.44-.28.28-.73-.27-.62A51.67,51.67,0,0,1,87.38,65.81Z"/><path class="cls-5" d="M85.52,72.94C77,72.84,69.79,73.44,70,81c-.1,4.55,6.71,8.32,15.21,8.42s15.41-1.29,15.55-8.07C100.88,74.11,94,73,85.52,72.94Z"/><path class="cls-6" d="M89.14,10.43l-4,.28.82-3.59a4.68,4.68,0,0,0,4-2.09c1-1.8-.12-3.91-2.5-4.71s-5.13,0-6.13,1.8.12,3.91,2.5,4.71a5.9,5.9,0,0,0,1,.24l.3,0L82.8,12.54l3.4-.38L82.79,18.3l4.43-.57L84.3,25.18q1.23,0,2.42.16l3.5-9.55-4,.38Z"/><path class="cls-3" d="M113.2,48.57l.54.39Z"/><path class="cls-3" d="M114.17,49.3l.48.4Z"/><path class="cls-6" d="M132.12,61a1.87,1.87,0,0,0-2.65.28,1.9,1.9,0,0,0-.24.39l-7.34-1.85-2.35-.58A12.5,12.5,0,0,0,116,51c-.31-.33-.76-.74-1.11-1.05.7.65-1.76,19.56-2.45,20q.47-.24.91-.5a12.38,12.38,0,0,0,5.75-7l2.62.06,7.31.16a1.91,1.91,0,0,0,.69,1.39,1.87,1.87,0,0,0,2.65-.28A1.93,1.93,0,0,0,132.12,61Z"/><path class="cls-4" d="M91.34,59.59c.42.2.81-.53,1.18-1.05a4.13,4.13,0,0,1,7,.66c.12.23.24.62.51.71a.32.32,0,0,0,.3-.06.65.65,0,0,0,.05-.51c-.48-1.92-1.12-3.16-2.28-3.79a4.12,4.12,0,0,0-3.71-.36,6.6,6.6,0,0,0-3.05,3.32C91.28,58.76,91,59.43,91.34,59.59Z"/><path class="cls-4" d="M77.15,59.42a.43.43,0,0,0,.21-.13,4.49,4.49,0,0,0,.41-.61,4.33,4.33,0,0,1,3.34-2.15,4.19,4.19,0,0,1,2.89.93,7.22,7.22,0,0,1,1.12,1.09c.17.2.62.82.69.93s.32.33.52.17,0-.66-.17-.92c-1.09-2.35-2.21-4.16-4.61-4.16-2.11,0-3.56,1.68-4.65,4.06a1.06,1.06,0,0,0-.14.45.4.4,0,0,0,.16.31A.28.28,0,0,0,77.15,59.42Z"/><path class="cls-6" d="M88.6,113.14a.24.24,0,0,0-.27.25l-.67,16.39a1,1,0,0,0,.9,1.06l14.25.1a.55.55,0,0,0,.28-1l-7.88-7.23a1.08,1.08,0,0,1-.34-1.08L96.49,115a.27.27,0,0,0-.19-.34l-2.13-.41-4.87-.94Z"/><path class="cls-6" d="M71.24,113.22a.24.24,0,0,0-.27.25l-.67,16.39a1,1,0,0,0,.9,1.06l14.25.1a.55.55,0,0,0,.28-1l-7.88-7.23a1.08,1.08,0,0,1-.34-1.08L79.13,115a.27.27,0,0,0-.19-.34l-2.11-.41L72,113.36Z"/><path class="cls-6" d="M104.36,101.71l-.62.16c-.8.24-.71.83-.73,1.16l-.13,1.9a1.42,1.42,0,0,1-.41.89,15.54,15.54,0,0,0-1.71,2c-.33.47-1.27,1.71-1.25,2.32,0,1.12,2.43-.21,2.86-.44.07,1.6-2.07,6.17,1.14,6.33,5.66,0,5.66-7.88,5.66-7.93a4.51,4.51,0,0,1,.48-2.18l1.1-2.18a1,1,0,0,0-.58-1.31l-.39-.18A9.2,9.2,0,0,0,104.36,101.71Z"/><path class="cls-6" d="M54.25,101.72c-.75.45-1.2,1-1,1.8l.94,3a7,7,0,0,1,.31,2h0a10.06,10.06,0,0,0,.88,4,7.64,7.64,0,0,0,2.12,2.94,2.7,2.7,0,0,0,2.35.51,2.25,2.25,0,0,0,1.47-1.29,9.19,9.19,0,0,0,.61-4.17c1.05.55,2.19.94,2.49.29s-2.37-3.74-2.8-4.13h0a2,2,0,0,1-.62-1.6l.18-3.37a.92.92,0,0,0-.82-1,5,5,0,0,0-.72-.08A11.05,11.05,0,0,0,54.25,101.72Z"/><path class="cls-7" d="M114.17,68.26a20.08,20.08,0,0,0,2.74-7.62,20.29,20.29,0,0,0-.42-8.23c-.49-1.76-2-3-3.43-3.94a5.22,5.22,0,0,1-2.17-3.14,25.65,25.65,0,0,0-.78-2.71c-3-8.71-10.89-15.1-19.47-17.12a31.27,31.27,0,0,0-4-.64q-1.16-.12-2.37-.16c-7.71-.27-16.67,1.79-21.56,7.66a22.19,22.19,0,0,0-3.19,5.39,5.22,5.22,0,0,1-2.85,2.71,21.47,21.47,0,0,0-3.72,2c3.22,3.09.31,17.54-2.66,19.24l0,0a20.6,20.6,0,0,0,3.92,3.1,5.6,5.6,0,0,1,1.94,2.09,12.73,12.73,0,0,0,.87,1.37A20.28,20.28,0,0,0,59,70.53c3.4,3.46,7.05,4.42,8.12,1.66A12.56,12.56,0,0,0,67.38,69c.11-1.89.27-3.78.4-5.67a18.27,18.27,0,0,1,4-10.63,14,14,0,0,1,7.46-4.68,23.48,23.48,0,0,1,7.43,0,44.29,44.29,0,0,1,14.7,3.76c1.51.73,3.35,1.71,4.13,3.31,2.33,4.75-.4,17,.06,19,.22.95.93.79,1.75.19A12.66,12.66,0,0,0,109.58,72a5.2,5.2,0,0,1,1.93-1.59l.71-.35.26-.15A5.06,5.06,0,0,0,114.17,68.26Z"/><path class="cls-6" d="M53,42.45a14.22,14.22,0,0,0-6.05,7.26l-2.94,0-9.76-.12a2.07,2.07,0,0,0-.63-1.43,2,2,0,0,0-2.88.07,2.09,2.09,0,0,0,.07,2.92A2,2,0,0,0,33.68,51a2.06,2.06,0,0,0,.42-.68L43.67,53l2.76.74a12.55,12.55,0,0,0,3.89,8h0a12.8,12.8,0,0,0,6.14-7.61C57.62,49.83,55.55,43.51,53,42.45Z"/><path class="cls-7" d="M52.84,46.69a.8.8,0,0,0-1.07-.38.83.83,0,0,0-.19,1.13.8.8,0,0,0,1.07.38A.83.83,0,0,0,52.84,46.69Z"/><path class="cls-7" d="M50.27,58.37A.83.83,0,0,0,50,59.5a.8.8,0,0,0,1.13,0,.83.83,0,0,0,.22-1.13A.8.8,0,0,0,50.27,58.37Z"/><path class="cls-7" d="M53.81,55.62a.82.82,0,0,0-.34-1.1.81.81,0,0,0-1,.52.82.82,0,0,0,.34,1.1A.81.81,0,0,0,53.81,55.62Z"/><ellipse class="cls-7" cx="53.8" cy="51.11" rx="0.73" ry="0.88" transform="matrix(1, -0.02, 0.02, 1, -0.88, 0.95)"/><polygon class="cls-6" points="78.14 43.04 78.08 39.17 80.82 42.08 82.07 38.34 84.57 41.36 88.44 34.32 89.77 39.79 91.71 38.5 90.83 42.59 96.26 39.67 96.08 43.64 99.16 42.61 102.12 46.22 99.54 41.55 97 42.42 97.15 38.26 92.04 40.95 92.93 36.6 90.3 38.39 88.7 32.01 84.46 39.86 81.72 36.68 80.49 40.52 77.23 36.96 77.27 40.99 75.31 38.98 72.69 42.02 75.25 40.1 78.14 43.04"/></g></g></svg>