<?xml version="1.0" encoding="utf-8"?>
<!-- Generator: Adobe Illustrator 22.0.1, SVG Export Plug-In . SVG Version: 6.00 Build 0)  -->
<svg version="1.1" id="Layer_1" xmlns="http://www.w3.org/2000/svg" xmlns:xlink="http://www.w3.org/1999/xlink" x="0px" y="0px"
	 viewBox="0 0 102.8 131" style="enable-background:new 0 0 102.8 131;" xml:space="preserve">
<style type="text/css">
	.st0{fill:#EFCE0A;}
	.st1{fill:#F6941E;}
	.st2{fill:#3A3930;}
	.st3{fill:#F2DA51;}
	.st4{fill:#BFBEAF;}
</style>
<title>Asset 4</title>
<g id="Layer_2_1_">
	<g id="Layer_1-2">
		<path class="st0" d="M75.4,83.7c0-0.1,0-0.2,0-0.2c1.1-2.9,1.7-6,1.9-9.1c7.4-12.1-1.7-38.7-3.2-39.4c-4.5-2.2-36-7.2-36.3-3.3
			c-0.7,10.8-1.6,21.7-2.3,32.6c-0.2,3.2-2.1,10.8-6.5,6.3c0,3.8,0.5,7.5,1.7,11.1c0,0.1,0,0.2-0.1,0.3c-6.1,6.3-7.1,14.3-6.4,20.5
			c1.7-0.8,3.5-1.2,5.4-1.1c-0.7-5,0.5-10.1,3.5-14.1c0.1-0.1,0.3-0.1,0.4,0l0,0c2,2.8,4.9,4.9,8.1,5.9c0.1,0,0.2,0.1,0.2,0.2V114
			l4.9,0.9V94.5c0-0.1,0.1-0.3,0.2-0.3c0,0,0,0,0.1,0c1.8,0.2,3.7,0.3,5.6,0.3c2.1,0,4.2-0.2,6.4-0.4c0.1,0,0.3,0.1,0.3,0.2l0,0
			v19.5l4.9,0.9V93.4c0-0.1,0.1-0.2,0.2-0.2c2.8-0.8,5.4-2.2,7.5-4.2c0.1-0.1,0.3-0.1,0.4,0c0,0,0,0,0.1,0.1c2,4.2,2.7,8.8,2.1,13.4
			c1.8-0.4,3.7-0.2,5.4,0.5C80.7,93.4,77.7,87.1,75.4,83.7z"/>
		<path class="st1" d="M67.2,62.3c-7.9,0.6-15.8,0.1-23.6-1.6c-3.2-0.8-4.4,1.6-2.5,4c2.3,2.9,6.5,4.2,9.9,4.8
			c5.7,1.1,11.5,1,17.2-0.2c2.1-0.5,7.7-3.1,5.6-6.1C72.7,61.5,69.1,62.2,67.2,62.3z"/>
		<path class="st2" d="M57.3,65.8c-3.2-0.3-6.4-0.8-9.5-1.5c-1.1-0.3-3.2-1-3.4-0.3c-0.3,0.9,2.6,1.5,3.9,1.8c2,0.4,3.9,0.7,5.9,1
			c4.1,0.6,8.4,0.6,12.5,0c1.6-0.2,3.2-0.7,4.7-1.4c0.4-0.3,0.3-0.7-0.3-0.6C66.6,65.7,61.9,66.1,57.3,65.8z"/>
		<path class="st3" d="M55.5,72.9C47,72.8,39.8,73.4,39.9,81c-0.1,4.6,6.7,8.3,15.2,8.4s15.4-1.3,15.6-8.1
			C70.8,74.1,64,73,55.5,72.9z"/>
		<path class="st2" d="M59.1,10.4l-4,0.3l0.8-3.6c1.6,0,3.1-0.8,4-2.1c1-1.8-0.1-3.9-2.5-4.7s-5.1,0-6.1,1.8s0.1,3.9,2.5,4.7
			c0.3,0.1,0.7,0.2,1,0.2h0.3l-2.2,5.4l3.4-0.4l-3.4,6.1l4.4-0.6L54.4,25c0.8,0,1.6,0.1,2.4,0.2l3.3-9.5l-4,0.4L59.1,10.4z"/>
		<path class="st1" d="M83.1,48.6l0.5,0.4L83.1,48.6z"/>
		<path class="st1" d="M84.1,49.3l0.5,0.4L84.1,49.3z"/>
		<path class="st2" d="M102.1,61c-0.8-0.7-2-0.5-2.6,0.3l0,0c-0.1,0.1-0.2,0.3-0.2,0.4L92,59.9l-2.4-0.6c-0.1-3.1-1.4-6-3.5-8.2
			c-0.3-0.3-0.8-0.7-1.1-1c0.7,0.7-1.8,19.6-2.4,20c0.3-0.2,0.6-0.3,0.9-0.5c2.7-1.5,4.8-4,5.8-7l2.6,0.1l7.3,0.2
			c0,0.5,0.3,1,0.7,1.4c0.8,0.7,2,0.5,2.6-0.3l0,0C103,63,102.9,61.8,102.1,61L102.1,61z"/>
		<path class="st2" d="M61.3,59.6c0.4,0.2,0.8-0.5,1.2-1c1.4-1.8,4-2.2,5.8-0.8c0.5,0.4,0.9,0.9,1.2,1.5c0.1,0.2,0.2,0.6,0.5,0.7
			c0.1,0,0.2,0,0.3-0.1c0.1-0.2,0.1-0.3,0.1-0.5c-0.5-1.9-1.1-3.2-2.3-3.8c-1.1-0.7-2.5-0.8-3.7-0.4c-1.4,0.7-2.5,1.9-3.1,3.3
			C61.2,58.8,60.9,59.4,61.3,59.6z"/>
		<path class="st2" d="M47.1,59.4c0.1,0,0.2-0.1,0.2-0.1c0.2-0.2,0.3-0.4,0.4-0.6c0.7-1.2,1.9-2,3.3-2.2c1-0.1,2.1,0.3,2.9,0.9
			c0.4,0.3,0.8,0.7,1.1,1.1c0.2,0.2,0.6,0.8,0.7,0.9s0.3,0.3,0.5,0.2s0-0.7-0.2-0.9c-1.1-2.3-2.2-4.2-4.6-4.2
			c-2.1,0-3.6,1.7-4.6,4.1c-0.1,0.1-0.1,0.3-0.1,0.5c0,0.1,0.1,0.2,0.2,0.3C46.9,59.4,47,59.4,47.1,59.4z"/>
		<path class="st2" d="M58.5,113.1c-0.1,0-0.3,0.1-0.3,0.2l0,0l-0.7,16.4c0,0.5,0.4,1,0.9,1.1l14.2,0.1c0.3,0,0.5-0.3,0.5-0.6
			c0-0.2-0.1-0.3-0.2-0.4l-7.9-7.2c-0.3-0.3-0.4-0.7-0.3-1.1l1.6-6.7c0-0.1,0-0.3-0.2-0.3l0,0l-2.1-0.4l-4.9-0.9L58.5,113.1z"/>
		<path class="st2" d="M41.2,113.2c-0.1,0-0.3,0.1-0.3,0.2l0,0l-0.7,16.4c0,0.5,0.4,1,0.9,1.1l14.2,0.1c0.3,0,0.5-0.3,0.5-0.6
			c0-0.2-0.1-0.3-0.2-0.4l-7.9-7.2c-0.3-0.3-0.4-0.7-0.3-1.1l1.7-6.7c0-0.1,0-0.3-0.2-0.3l0,0l-2.1-0.4l-4.9-0.9L41.2,113.2z"/>
		<path class="st2" d="M74.3,101.7l-0.6,0.2c-0.8,0.2-0.7,0.8-0.7,1.2l-0.1,1.9c0,0.3-0.2,0.7-0.4,0.9c-0.6,0.6-1.2,1.3-1.7,2
			c-0.3,0.5-1.3,1.7-1.2,2.3c0,1.1,2.4-0.2,2.9-0.4c0.1,1.6-2.1,6.2,1.1,6.3c5.7,0,5.7-7.9,5.7-7.9c0-0.8,0.1-1.5,0.5-2.2l1.1-2.2
			c0.2-0.5,0-1.1-0.6-1.3l0,0l-0.4-0.2C78,101.5,76.1,101.3,74.3,101.7z"/>
		<path class="st2" d="M24.2,101.7c-0.8,0.4-1.2,1-1,1.8l0.9,3c0.2,0.6,0.3,1.3,0.3,2l0,0c0,1.4,0.3,2.7,0.9,4
			c0.5,1.1,1.2,2.1,2.1,2.9c0.7,0.5,1.5,0.7,2.4,0.5c0.7-0.2,1.2-0.7,1.5-1.3c0.5-1.3,0.7-2.8,0.6-4.2c1.1,0.6,2.2,0.9,2.5,0.3
			s-2.4-3.7-2.8-4.1l0,0c-0.4-0.4-0.7-1-0.6-1.6l0.2-3.4c0-0.5-0.3-0.9-0.8-1c-0.2,0-0.5-0.1-0.7-0.1
			C27.7,100.5,25.9,100.9,24.2,101.7z"/>
		<path class="st4" d="M84.1,68.3c1.4-2.3,2.4-4.9,2.7-7.6c0.4-2.7,0.3-5.5-0.4-8.2c-0.5-1.8-2-3-3.4-3.9c-1.1-0.7-1.9-1.9-2.2-3.1
			c-0.2-0.9-0.5-1.8-0.8-2.7c-3-8.7-10.9-15.1-19.5-17.1c-1.3-0.3-2.7-0.5-4-0.6c-0.8-0.1-1.6-0.1-2.4-0.2
			c-7.7-0.3-16.7,1.8-21.6,7.7c-1.3,1.6-2.4,3.5-3.2,5.4c-0.6,1.2-1.6,2.2-2.9,2.7c-1.3,0.5-2.5,1.2-3.7,2
			c3.2,3.1,0.3,17.5-2.7,19.2l0,0c1.2,1.2,2.5,2.2,3.9,3.1c0.8,0.5,1.5,1.2,1.9,2.1c0.3,0.5,0.6,0.9,0.9,1.4
			c0.6,0.8,1.2,1.5,1.9,2.2c3.4,3.5,7.1,4.4,8.1,1.7c0.2-1,0.3-2.1,0.3-3.1c0.1-1.9,0.3-3.8,0.4-5.7c0.2-3.9,1.6-7.6,4-10.6
			c1.9-2.3,4.5-4,7.5-4.7c2.5-0.4,5-0.4,7.4,0c5.1,0.4,10.1,1.7,14.7,3.8c1.5,0.7,3.4,1.7,4.1,3.3c2.3,4.8-0.4,17,0.1,19
			c0.2,0.9,0.9,0.8,1.8,0.2c0.9-0.7,1.7-1.4,2.3-2.3c0.5-0.7,1.2-1.2,1.9-1.6l0.7-0.3l0.3-0.2C83.1,69.5,83.7,68.9,84.1,68.3z"/>
		<path class="st2" d="M22.9,42.4c-2.8,1.7-4.9,4.2-6.1,7.3h-2.9l-9.8-0.1c0-0.5-0.2-1.1-0.6-1.4c-0.8-0.8-2.1-0.8-2.8,0
			c0,0,0,0-0.1,0.1c-0.8,0.8-0.7,2.1,0.1,2.9c0.8,0.8,2.1,0.8,2.8,0c0,0,0,0,0.1-0.1c0.2-0.2,0.3-0.4,0.4-0.7l9.6,2.6l2.8,0.7
			c0.3,3.1,1.7,5.9,3.9,8l0,0c3-1.6,5.2-4.4,6.1-7.6C27.5,49.8,25.5,43.5,22.9,42.4z"/>
		<path class="st4" d="M22.8,46.7c-0.2-0.4-0.7-0.6-1.1-0.4l0,0c-0.4,0.3-0.4,0.8-0.2,1.1c0.2,0.4,0.7,0.6,1.1,0.4l0,0
			C22.9,47.6,23,47.1,22.8,46.7z"/>
		<path class="st4" d="M20.2,58.4c-0.4,0.3-0.5,0.8-0.2,1.1s0.8,0.3,1.1,0c0.4-0.3,0.5-0.8,0.2-1.1C21,58.1,20.5,58.1,20.2,58.4z"/>
		<path class="st4" d="M23.7,55.6c0.2-0.4,0.1-0.9-0.3-1.1c-0.4-0.1-0.9,0.1-1,0.5c-0.2,0.4-0.1,0.9,0.3,1.1
			C23.2,56.3,23.6,56,23.7,55.6z"/>
		
			<ellipse transform="matrix(0.9998 -1.745324e-02 1.745324e-02 0.9998 -0.8884 0.4204)" class="st4" cx="23.6" cy="51.1" rx="0.7" ry="0.9"/>
		<polygon class="st2" points="48.1,43 48,39.2 50.7,42.1 52,38.3 54.5,41.4 58.4,34.3 59.7,39.8 61.6,38.5 60.8,42.6 66.2,39.7 
			66,43.6 69.1,42.6 72,46.2 69.5,41.5 66.9,42.4 67.1,38.3 62,40.9 62.9,36.6 60.2,38.4 58.6,32 54.4,39.9 51.7,36.7 50.4,40.5 
			47.2,37 47.2,41 45.2,39 42.6,42 45.2,40.1 		"/>
	</g>
</g>
</svg>
