<svg xmlns="http://www.w3.org/2000/svg" viewBox="0 0 102.73 131.02"><defs><style>.cls-1{fill:#efce0a;}.cls-2{fill:#f6941e;}.cls-3{fill:#3a3930;}.cls-4{fill:#f2da51;}.cls-5{fill:#4e4d3f;}.cls-6{fill:#bfbeaf;}</style></defs><title>Asset 1</title><g id="Layer_2" data-name="Layer 2"><g id="Isolation_Mode" data-name="Isolation Mode"><path class="cls-1" d="M71.69,88.88a3.16,3.16,0,0,1,.66-.55l.06,0c1-1.45,2.09-2.79,3.09-4.21l-.24-.36a.24.24,0,0,1,0-.24,29.64,29.64,0,0,0,1.88-9.12c7.35-12.11-1.72-38.69-3.23-39.42-4.53-2.2-36-7.18-36.29-3.32C36.88,42.48,36,53.32,35.35,64.17c-.21,3.24-2.12,10.82-6.51,6.35A36,36,0,0,0,30.5,81.66a.25.25,0,0,1-.06.26c-6.12,6.3-7.11,14.33-6.37,20.46a11.05,11.05,0,0,1,5.38-1.07,19.25,19.25,0,0,1,3.59-14.11.26.26,0,0,1,.41,0A16.1,16.1,0,0,0,41.6,93.1a.26.26,0,0,1,.18.24V114l4.87.94V94.52a.25.25,0,0,1,.29-.26,43.46,43.46,0,0,0,5.55.34,58.11,58.11,0,0,0,6.35-.41.25.25,0,0,1,.28.26v19.47l4.87.94V93.36a.26.26,0,0,1,.18-.25,17.81,17.81,0,0,0,7.5-4.22Z"/><path class="cls-1" d="M71,87.67c0,.1-.05.18-.07.28a.29.29,0,0,1,.24,0c8.7,2.93,17.1.41,22.93-2.9a10.3,10.3,0,0,1-3.19-4.49c-3.74,2.07-9.33,4.1-15.51,2.74a.25.25,0,0,1-.16-.38l.17-.3C73.46,83.88,71.41,85.12,71,87.67Z"/><path class="cls-2" d="M67.14,62.31a82.39,82.39,0,0,1-23.58-1.59c-3.22-.8-4.4,1.59-2.46,4,2.33,2.91,6.46,4.19,9.95,4.83a42.47,42.47,0,0,0,17.16-.18c2.14-.52,7.74-3.09,5.64-6.11C72.62,61.51,69,62.16,67.14,62.31Z"/><path class="cls-3" d="M57.21,65.81a67.05,67.05,0,0,1-9.52-1.48c-1.06-.27-3.22-1-3.44-.32-.27.88,2.65,1.54,3.88,1.79,2,.4,3.95.73,5.95,1a40.53,40.53,0,0,0,12.49,0,14.82,14.82,0,0,0,4.72-1.39c.44-.28.28-.73-.27-.62A51.67,51.67,0,0,1,57.21,65.81Z"/><path class="cls-4" d="M55.35,72.94c-8.49-.1-15.73.51-15.55,8.07-.1,4.55,6.71,8.32,15.21,8.42s15.41-1.29,15.55-8.07C70.71,74.11,63.85,73,55.35,72.94Z"/><path class="cls-5" d="M59,10.43l-4,.28.82-3.59A4.68,4.68,0,0,0,59.7,5c1-1.8-.12-3.91-2.5-4.71s-5.13,0-6.13,1.8.12,3.91,2.5,4.71a5.9,5.9,0,0,0,1,.24l.3,0-2.25,5.45,3.4-.38L52.62,18.3,57,17.73l-2.92,7.45q1.23,0,2.42.16L60,15.8l-4,.38Z"/><path class="cls-5" d="M102,61a1.87,1.87,0,0,0-2.65.28,1.9,1.9,0,0,0-.24.39l-7.34-1.85-2.35-.58A12.5,12.5,0,0,0,85.85,51c-.31-.33-.76-.74-1.11-1.05.7.65-1.76,19.56-2.45,20q.47-.24.91-.5a12.38,12.38,0,0,0,5.75-7l2.62.06,7.31.16A1.91,1.91,0,0,0,99.58,64a1.87,1.87,0,0,0,2.65-.28A1.93,1.93,0,0,0,102,61Z"/><path class="cls-3" d="M61.17,59.59c.42.2.81-.53,1.18-1.05a4.13,4.13,0,0,1,7,.66c.12.23.24.62.51.71a.32.32,0,0,0,.3-.06.65.65,0,0,0,.05-.51c-.48-1.92-1.12-3.16-2.28-3.79a4.12,4.12,0,0,0-3.71-.36,6.6,6.6,0,0,0-3.05,3.32C61.11,58.76,60.84,59.43,61.17,59.59Z"/><path class="cls-3" d="M47,59.42a.43.43,0,0,0,.21-.13,4.49,4.49,0,0,0,.41-.61,4.33,4.33,0,0,1,3.34-2.15,4.19,4.19,0,0,1,2.89.93,7.22,7.22,0,0,1,1.12,1.09c.17.2.62.82.69.93s.32.33.52.17,0-.66-.17-.92c-1.09-2.35-2.21-4.16-4.61-4.16-2.11,0-3.56,1.68-4.65,4.06a1.06,1.06,0,0,0-.14.45.4.4,0,0,0,.16.31A.28.28,0,0,0,47,59.42Z"/><path class="cls-5" d="M58.43,113.14a.24.24,0,0,0-.27.25l-.67,16.39a1,1,0,0,0,.9,1.06l14.25.1a.55.55,0,0,0,.28-1L65,122.73a1.08,1.08,0,0,1-.34-1.08L66.32,115a.27.27,0,0,0-.19-.34L64,114.21l-4.87-.94Z"/><path class="cls-5" d="M41.07,113.22a.24.24,0,0,0-.27.25l-.67,16.39a1,1,0,0,0,.9,1.06l14.25.1a.55.55,0,0,0,.28-1l-7.88-7.23a1.08,1.08,0,0,1-.34-1.08L49,115a.27.27,0,0,0-.19-.34l-2.11-.41-4.87-.94Z"/><path class="cls-5" d="M88.6,81.83c0-.21.09-.41.16-.62.23-.8.82-.71,1.14-.73l1.88-.13a1.4,1.4,0,0,0,.88-.41,15.4,15.4,0,0,1,2-1.71c.47-.33,1.69-1.27,2.29-1.25,1.11,0-.2,2.43-.43,2.86,1.58.07,6.09-2.07,6.25,1.14,0,5.66-7.78,5.66-7.82,5.66a4.41,4.41,0,0,0-2.15.48l-2.15,1.1c-.37.19-.94.13-1.29-.58,0,0-.08-.14-.18-.39A9.31,9.31,0,0,1,88.6,81.83Z"/><path class="cls-5" d="M24.08,101.72c-.75.45-1.2,1-1,1.8l.94,3a7,7,0,0,1,.31,2h0a10.06,10.06,0,0,0,.88,4,7.64,7.64,0,0,0,2.12,2.94,2.7,2.7,0,0,0,2.35.51,2.25,2.25,0,0,0,1.47-1.29,9.19,9.19,0,0,0,.61-4.17c1.05.55,2.19.94,2.49.29s-2.37-3.74-2.8-4.13h0a2,2,0,0,1-.62-1.6l.18-3.37a.92.92,0,0,0-.82-1,5,5,0,0,0-.72-.08A11.05,11.05,0,0,0,24.08,101.72Z"/><path class="cls-6" d="M84,68.26a20.08,20.08,0,0,0,2.74-7.62,20.29,20.29,0,0,0-.42-8.23c-.49-1.76-2-3-3.43-3.94a5.22,5.22,0,0,1-2.17-3.14,25.65,25.65,0,0,0-.78-2.71c-3-8.71-10.89-15.1-19.47-17.12a31.27,31.27,0,0,0-4-.64q-1.16-.12-2.37-.16c-7.71-.27-16.67,1.79-21.56,7.66a22.19,22.19,0,0,0-3.19,5.39,5.22,5.22,0,0,1-2.85,2.71,21.47,21.47,0,0,0-3.72,2C26,45.54,23.14,60,20.16,61.69l0,0a20.6,20.6,0,0,0,3.92,3.1,5.6,5.6,0,0,1,1.94,2.09,12.73,12.73,0,0,0,.87,1.37,20.28,20.28,0,0,0,1.91,2.24c3.4,3.46,7.05,4.42,8.12,1.66A12.56,12.56,0,0,0,37.21,69c.11-1.89.27-3.78.4-5.67a18.27,18.27,0,0,1,4-10.63,14,14,0,0,1,7.46-4.68,23.48,23.48,0,0,1,7.43,0,44.29,44.29,0,0,1,14.7,3.76c1.51.73,3.35,1.71,4.13,3.31,2.33,4.75-.4,17,.06,19,.22.95.93.79,1.75.19A12.66,12.66,0,0,0,79.4,72a5.2,5.2,0,0,1,1.93-1.59l.71-.35.26-.15A5.06,5.06,0,0,0,84,68.26Z"/><path class="cls-5" d="M22.82,42.45a14.22,14.22,0,0,0-6.05,7.26l-2.94,0-9.76-.12a2.07,2.07,0,0,0-.63-1.43,2,2,0,0,0-2.88.07,2.09,2.09,0,0,0,.07,2.92A2,2,0,0,0,3.51,51a2.06,2.06,0,0,0,.42-.68L13.5,53l2.76.74a12.55,12.55,0,0,0,3.89,8h0a12.8,12.8,0,0,0,6.14-7.61C27.44,49.83,25.38,43.51,22.82,42.45Z"/><path class="cls-6" d="M22.67,46.69a.8.8,0,0,0-1.07-.38.83.83,0,0,0-.19,1.13.8.8,0,0,0,1.07.38A.83.83,0,0,0,22.67,46.69Z"/><path class="cls-6" d="M20.09,58.37a.83.83,0,0,0-.22,1.13.8.8,0,0,0,1.13,0,.83.83,0,0,0,.22-1.13A.8.8,0,0,0,20.09,58.37Z"/><path class="cls-6" d="M23.64,55.62a.82.82,0,0,0-.34-1.1.81.81,0,0,0-1,.52.82.82,0,0,0,.34,1.1A.81.81,0,0,0,23.64,55.62Z"/><ellipse class="cls-6" cx="23.63" cy="51.11" rx="0.73" ry="0.88" transform="translate(-0.89 0.42) rotate(-1)"/><polygon class="cls-5" points="47.97 43.04 47.91 39.17 50.65 42.08 51.9 38.34 54.4 41.36 58.27 34.32 59.6 39.79 61.54 38.5 60.66 42.59 66.09 39.67 65.91 43.64 68.98 42.61 71.95 46.22 69.36 41.55 66.83 42.42 66.97 38.26 61.87 40.95 62.75 36.6 60.12 38.39 58.53 32.01 54.28 39.86 51.55 36.68 50.32 40.52 47.05 36.96 47.09 40.99 45.14 38.98 42.52 42.02 45.08 40.1 47.97 43.04"/></g></g></svg>